<svg width="40" height="40" viewBox="0 0 40 40" fill="none" xmlns="http://www.w3.org/2000/svg">
<path d="M30 13.334C30 10.6818 28.9464 8.13828 27.0711 6.26292C25.1957 4.38755 22.6522 3.33398 20 3.33398C17.3478 3.33398 14.8043 4.38755 12.9289 6.26292C11.0536 8.13828 10 10.6818 10 13.334C10 25.0006 5 28.334 5 28.334H35C35 28.334 30 25.0006 30 13.334Z" fill="#B9D5E8" stroke="black" stroke-width="2" stroke-linecap="round" stroke-linejoin="round"/>
<path d="M22.8839 35C22.5908 35.5051 22.1703 35.9244 21.6642 36.2159C21.1582 36.5073 20.5845 36.6608 20.0005 36.6608C19.4166 36.6608 18.8428 36.5073 18.3368 36.2159C17.8308 35.9244 17.4102 35.5051 17.1172 35" stroke="black" stroke-width="2" stroke-linecap="round" stroke-linejoin="round"/>
</svg>
