<svg width="40" height="40" viewBox="0 0 40 40" fill="none" xmlns="http://www.w3.org/2000/svg">
<path d="M23.3327 3.33398H9.99935C9.11529 3.33398 8.26745 3.68517 7.64233 4.31029C7.0172 4.93542 6.66602 5.78326 6.66602 6.66732V33.334C6.66602 34.218 7.0172 35.0659 7.64233 35.691C8.26745 36.3161 9.11529 36.6673 9.99935 36.6673H29.9993C30.8834 36.6673 31.7312 36.3161 32.3564 35.691C32.9815 35.0659 33.3327 34.218 33.3327 33.334V13.334L23.3327 3.33398Z" stroke="black" stroke-width="2" stroke-linecap="round" stroke-linejoin="round"/>
<path d="M32.766 13.6173L23.4043 3.83008V13.6173H32.766Z" fill="#9ACDED"/>
<path d="M23.334 3.33398V13.334H33.334" stroke="black" stroke-width="2" stroke-linecap="round" stroke-linejoin="round"/>
<path d="M26.6673 21.666H13.334" stroke="black" stroke-width="2" stroke-linecap="round" stroke-linejoin="round"/>
<path d="M26.6673 28.334H13.334" stroke="black" stroke-width="2" stroke-linecap="round" stroke-linejoin="round"/>
<path d="M16.6673 15H15.0006H13.334" stroke="black" stroke-width="2" stroke-linecap="round" stroke-linejoin="round"/>
</svg>
