<svg width="181" height="34" viewBox="0 0 181 34" fill="none" xmlns="http://www.w3.org/2000/svg">
<path d="M0 26.5982V1.39648H6.71603L12.0357 10.6393C13.5651 13.2992 15.028 16.4244 16.2249 19.2837H16.2914C15.9589 15.959 15.8259 12.5677 15.8259 8.77747V1.39648H21.1455V26.5982H15.0944L9.64183 16.8899C8.11243 14.1636 6.45005 10.9718 5.18664 7.97953H5.05365C5.25313 11.3043 5.31963 14.895 5.31963 19.0178V26.5982H0Z" fill="#0072BC"/>
<path d="M31.9867 3.19133C31.9867 4.78722 30.7898 6.05063 28.8614 6.05063C27.0661 6.05063 25.8691 4.78722 25.8691 3.19133C25.8691 1.59544 27.0661 0.332031 28.9279 0.332031C30.7898 0.332031 31.9202 1.52895 31.9867 3.19133ZM26.0021 26.5977V8.24498H31.7872V26.5312H26.0021V26.5977Z" fill="#0072BC"/>
<path d="M50.3366 26.1338C49.2726 26.5993 47.3443 26.9982 45.1499 26.9982C39.1653 26.9982 35.3086 23.4075 35.3086 17.6224C35.3086 12.3028 39.0323 7.91406 45.8814 7.91406C47.4108 7.91406 49.0731 8.18005 50.2701 8.64551L49.3391 12.9012C48.6742 12.5687 47.6102 12.3028 46.0808 12.3028C43.0221 12.3028 41.0937 14.4306 41.0937 17.4229C41.0937 20.8142 43.3545 22.543 46.1473 22.543C47.5437 22.543 48.6077 22.2771 49.4721 21.9446L50.3366 26.1338Z" fill="#0072BC"/>
<path d="M53.4648 0H59.2499V10.4398H59.3164C59.9149 9.64183 60.6463 9.04337 61.5773 8.5779C62.4417 8.11243 63.5056 7.84645 64.5696 7.84645C68.2268 7.84645 71.0861 10.3733 71.0861 15.8924V26.5981H65.301V16.4909C65.301 14.097 64.4366 12.4346 62.3087 12.4346C60.7793 12.4346 59.8484 13.4321 59.4494 14.4295C59.3164 14.762 59.2499 15.2939 59.2499 15.6929V26.5317H53.4648V0Z" fill="#0072BC"/>
<path d="M93.9576 17.2235C93.9576 23.9395 89.1699 26.9983 84.1828 26.9983C78.7966 26.9983 74.6074 23.4741 74.6074 17.556C74.6074 11.6379 78.5306 7.84766 84.5152 7.84766C90.2338 7.84766 93.9576 11.7044 93.9576 17.2235ZM80.592 17.423C80.592 20.5483 81.9219 22.9421 84.3822 22.9421C86.6431 22.9421 88.0395 20.7478 88.0395 17.423C88.0395 14.6967 86.9756 11.9704 84.3822 11.9704C81.5894 11.9039 80.592 14.6967 80.592 17.423Z" fill="#0072BC"/>
<path d="M97.9469 20.6807C99.4763 21.4786 101.87 22.2766 104.33 22.2766C106.99 22.2766 108.387 21.2126 108.387 19.5503C108.387 18.0209 107.19 17.0899 104.131 16.026C99.8753 14.5631 97.0825 12.2358 97.0825 8.57852C97.0825 4.25632 100.74 0.998047 106.724 0.998047C109.65 0.998047 111.711 1.5965 113.241 2.26146L111.977 6.84964C110.98 6.38417 109.118 5.65272 106.658 5.65272C104.131 5.65272 102.934 6.78314 102.934 8.11305C102.934 9.70894 104.33 10.4404 107.655 11.6373C112.177 13.2997 114.238 15.627 114.238 19.2178C114.238 23.407 110.98 27.0642 103.931 27.0642C101.006 27.0642 98.1464 26.2663 96.75 25.4683L97.9469 20.6807Z" fill="#2AAC27"/>
<path d="M117.83 0H123.615V10.4398H123.682C124.28 9.64183 125.012 9.04337 125.943 8.5779C126.807 8.11243 127.871 7.84645 128.935 7.84645C132.592 7.84645 135.451 10.3733 135.451 15.8924V26.5981H129.666V16.4909C129.666 14.097 128.802 12.4346 126.674 12.4346C125.145 12.4346 124.214 13.4321 123.748 14.4295C123.615 14.762 123.549 15.2939 123.549 15.6929V26.5317H117.764V0H117.83Z" fill="#2AAC27"/>
<path d="M158.325 17.2235C158.325 23.9395 153.537 26.9983 148.55 26.9983C143.164 26.9983 138.975 23.4741 138.975 17.556C138.975 11.6379 142.898 7.84766 148.882 7.84766C154.601 7.84766 158.325 11.7044 158.325 17.2235ZM144.959 17.423C144.959 20.5483 146.289 22.9421 148.749 22.9421C151.01 22.9421 152.407 20.7478 152.407 17.423C152.407 14.6967 151.343 11.9704 148.749 11.9704C146.023 11.9039 144.959 14.6967 144.959 17.423Z" fill="#2AAC27"/>
<path d="M161.916 14.4307C161.916 12.0369 161.85 9.97551 161.783 8.24663H166.77L167.036 10.8399H167.103C168.499 8.91158 170.561 7.84766 173.287 7.84766C177.343 7.84766 181 11.3054 181 17.157C181 23.8065 176.678 26.9318 172.555 26.9318C170.361 26.9318 168.566 26.0674 167.768 24.8705H167.701V33.9803H161.916V14.4307ZM167.701 18.7529C167.701 19.1519 167.768 19.5508 167.834 19.9498C168.233 21.4792 169.563 22.6761 171.226 22.6761C173.686 22.6761 175.215 20.6148 175.215 17.4895C175.215 14.5637 173.885 12.3693 171.359 12.3693C169.696 12.3693 168.233 13.5663 167.901 15.2286C167.834 15.5611 167.768 15.8936 167.768 16.2261V18.7529H167.701Z" fill="#2AAC27"/>
</svg>
