<svg width="51" height="32" viewBox="0 0 51 32" fill="none" xmlns="http://www.w3.org/2000/svg">
<path fill-rule="evenodd" clip-rule="evenodd" d="M49.227 31.5258C48.6712 31.8343 48.0432 31.9976 47.4038 31.9999H3.64657C3.00606 32.0054 2.37598 31.8416 1.82336 31.5258L16.4091 17.3036L19.9947 20.7999C20.7263 21.4866 21.5945 22.0197 22.5458 22.3662C23.497 22.7128 24.511 22.8654 25.5252 22.8147C26.5387 22.86 27.5512 22.7049 28.5016 22.3586C29.4521 22.0124 30.3208 21.4821 31.0556 20.7999L34.6412 17.3036L49.227 31.5258ZM50.5032 30.2221L35.9175 15.9999L50.5032 1.77777C50.8196 2.31964 50.9871 2.93201 50.9894 3.55554V28.4443C51.0461 29.0742 50.874 29.7034 50.5032 30.2221ZM0.486331 30.2221C0.169955 29.6802 0.00248257 29.0679 0.000140596 28.4443V3.55554C-0.00556454 2.93099 0.162456 2.31662 0.486331 1.77777L15.0721 15.9999L0.486331 30.2221ZM49.227 0.474072L29.7186 19.4962C29.1631 20.0167 28.505 20.4217 27.7841 20.6865C27.0633 20.9514 26.2947 21.0706 25.5252 21.0369C24.7556 21.0706 23.987 20.9514 23.2662 20.6865C22.5453 20.4217 21.8872 20.0167 21.3318 19.4962L1.82336 0.474072C2.37908 0.165581 3.0071 0.00228359 3.64657 0H47.4038C48.0432 0.00227502 48.6712 0.165573 49.227 0.474072Z" fill="#1FAEFF"/>
</svg>
