<svg width="50" height="50" viewBox="0 0 50 50" fill="none" xmlns="http://www.w3.org/2000/svg">
<mask id="path-1-inside-1_1277_10988" fill="white">
<rect x="5" y="28.9727" width="10.7143" height="20.7589" rx="1"/>
</mask>
<rect x="5" y="28.9727" width="10.7143" height="20.7589" rx="1" fill="#2AAC27" stroke="#2AAC27" stroke-width="4" mask="url(#path-1-inside-1_1277_10988)"/>
<mask id="path-2-inside-2_1277_10988" fill="white">
<rect x="35" y="12.5" width="10.7143" height="37.5" rx="1"/>
</mask>
<rect x="35" y="12.5" width="10.7143" height="37.5" rx="1" fill="#2AAC27" stroke="#2AAC27" stroke-width="4" mask="url(#path-2-inside-2_1277_10988)"/>
<mask id="path-3-inside-3_1277_10988" fill="white">
<rect x="19.7319" y="20.2695" width="10.7143" height="29.4643" rx="1"/>
</mask>
<rect x="19.7319" y="20.2695" width="10.7143" height="29.4643" rx="1" fill="#2AAC27" stroke="#2AAC27" stroke-width="4" mask="url(#path-3-inside-3_1277_10988)"/>
<path d="M4.93675 18.377C4.38557 18.4119 3.96707 18.8871 4.002 19.4383C4.03694 19.9894 4.51207 20.4079 5.06325 20.373L4.93675 18.377ZM28.4302 2.5L29.4142 2.32177C29.3645 2.04697 29.202 1.8055 28.9663 1.6558C28.7305 1.5061 28.4429 1.46181 28.173 1.53365L28.4302 2.5ZM29.016 11.3449C29.1144 11.8883 29.6348 12.2491 30.1782 12.1507C30.7217 12.0522 31.0824 11.5319 30.984 10.9884L29.016 11.3449ZM19.4521 3.85508C18.9184 3.99714 18.6009 4.54496 18.743 5.07866C18.885 5.61236 19.4328 5.92984 19.9665 5.78778L19.4521 3.85508ZM5.06325 20.373C7.29346 20.2316 11.5583 19.0416 16.1328 16.3451C20.7309 13.6347 25.7109 9.36268 29.3014 2.99093L27.559 2.00907C24.1728 8.01827 19.4726 12.0548 15.1172 14.6222C10.7382 17.2034 6.77631 18.2604 4.93675 18.377L5.06325 20.373ZM27.4462 2.67823L29.016 11.3449L30.984 10.9884L29.4142 2.32177L27.4462 2.67823ZM28.173 1.53365L19.4521 3.85508L19.9665 5.78778L28.6875 3.46635L28.173 1.53365Z" fill="#0072BC"/>
</svg>
