<svg width="50" height="50" viewBox="0 0 50 50" fill="none" xmlns="http://www.w3.org/2000/svg">
<path d="M42.5 32.5V37.5C42.5 40.2614 40.2614 42.5 37.5 42.5H28.75" stroke="#3679C8" stroke-width="2" stroke-linecap="round" stroke-linejoin="round"/>
<path d="M41.369 22.7976C41.369 12.9683 34.3201 5 25.6249 5C16.9297 5 9.88086 12.9683 9.88086 22.7976" stroke="#4A97F1" stroke-width="3" stroke-linecap="round"/>
<path d="M1.66667 25.5357C1.66667 20.9991 5.95726 17.3214 11.25 17.3214C11.25 17.3214 11.25 20.9991 11.25 25.5357C11.25 30.0723 11.25 33.75 11.25 33.75C5.95726 33.75 1.66667 30.0723 1.66667 25.5357Z" fill="#4A97F1"/>
<path d="M49.5833 25.5357C49.5833 20.9991 45.2927 17.3214 40 17.3214C40 17.3214 40 20.9991 40 25.5357C40 30.0723 40 33.75 40 33.75C45.2927 33.75 49.5833 30.0723 49.5833 25.5357Z" fill="#4A97F1"/>
<ellipse cx="29.375" cy="42.5" rx="5.625" ry="3.75" fill="#4A97F1"/>
<rect x="10" y="16.25" width="3.75" height="18.75" rx="1" fill="#3679C8"/>
<rect x="37.5" y="16.25" width="3.75" height="18.75" rx="1" fill="#3679C8"/>
</svg>
