<svg width="459" height="22" viewBox="0 0 459 22" fill="none" xmlns="http://www.w3.org/2000/svg">
<path d="M38.2705 18V6.74121H42.2695V5.31738H32.6895V6.74121H36.6885V18H38.2705ZM43.7812 18H45.3105V12.6738C45.3105 11.0918 46.251 10.0547 47.7715 10.0547C49.2041 10.0547 49.9336 10.9248 49.9336 12.375V18H51.4629V12.0938C51.4629 10.0547 50.25 8.70117 48.2461 8.70117C46.8574 8.70117 45.8555 9.29883 45.3457 10.3184H45.3105V5.31738H43.7812V18ZM57.0703 10.0283C58.5117 10.0283 59.4697 11.1182 59.5049 12.6475H54.5391C54.6357 11.127 55.6377 10.0283 57.0703 10.0283ZM59.4697 15.3809C59.2148 16.2422 58.3623 16.8311 57.2021 16.8311C55.5586 16.8311 54.5303 15.6797 54.5303 13.9307V13.8428H61.0869V13.2627C61.0869 10.4941 59.5664 8.70117 57.0967 8.70117C54.5742 8.70117 52.957 10.626 52.957 13.4648C52.957 16.3389 54.5479 18.1582 57.167 18.1582C59.1621 18.1582 60.709 16.9805 60.9727 15.3809H59.4697ZM73.9189 11.8564C73.7256 10.2129 72.3633 8.70117 70.0781 8.70117C67.5557 8.70117 65.877 10.5469 65.877 13.4297C65.877 16.374 67.5645 18.1582 70.0957 18.1582C72.1699 18.1582 73.6992 16.875 73.9365 15.0557H72.4336C72.1699 16.1543 71.3525 16.8135 70.1045 16.8135C68.5225 16.8135 67.4326 15.5566 67.4326 13.4297C67.4326 11.3555 68.5049 10.0459 70.0869 10.0459C71.4316 10.0459 72.2051 10.8633 72.4248 11.8564H73.9189ZM82.8486 8.85938H81.3193V14.2295C81.3193 15.7852 80.4229 16.8047 78.9375 16.8047C77.5225 16.8047 76.8281 16.0049 76.8281 14.5195V8.85938H75.2988V14.792C75.2988 16.8662 76.4678 18.1582 78.4629 18.1582C79.8691 18.1582 80.8184 17.5693 81.3633 16.5146H81.3984V18H82.8486V8.85938ZM84.835 18H86.3643V12.3047C86.3643 11.0127 87.1377 10.1602 88.3242 10.1602C88.6934 10.1602 89.0186 10.2041 89.1416 10.248V8.7627C89.0186 8.74512 88.79 8.70117 88.5264 8.70117C87.4541 8.70117 86.6104 9.34277 86.3115 10.3535H86.2764V8.85938H84.835V18ZM90.3896 18H91.9189V12.3047C91.9189 11.0127 92.6924 10.1602 93.8789 10.1602C94.248 10.1602 94.5732 10.2041 94.6963 10.248V8.7627C94.5732 8.74512 94.3447 8.70117 94.0811 8.70117C93.0088 8.70117 92.165 9.34277 91.8662 10.3535H91.8311V8.85938H90.3896V18ZM99.1699 10.0283C100.611 10.0283 101.569 11.1182 101.604 12.6475H96.6387C96.7354 11.127 97.7373 10.0283 99.1699 10.0283ZM101.569 15.3809C101.314 16.2422 100.462 16.8311 99.3018 16.8311C97.6582 16.8311 96.6299 15.6797 96.6299 13.9307V13.8428H103.187V13.2627C103.187 10.4941 101.666 8.70117 99.1963 8.70117C96.6738 8.70117 95.0566 10.626 95.0566 13.4648C95.0566 16.3389 96.6475 18.1582 99.2666 18.1582C101.262 18.1582 102.809 16.9805 103.072 15.3809H101.569ZM104.733 18H106.263V12.6211C106.263 11.0742 107.203 10.0547 108.645 10.0547C110.051 10.0547 110.745 10.8633 110.745 12.3398V18H112.274V12.0674C112.274 9.99316 111.114 8.70117 109.11 8.70117C107.695 8.70117 106.72 9.33398 106.21 10.3184H106.175V8.85938H104.733V18ZM114.718 6.65332V8.85938H113.355V10.1162H114.718V15.627C114.718 17.3848 115.368 18.0703 117.047 18.0703C117.407 18.0703 117.829 18.0439 118.014 18V16.7168C117.908 16.7344 117.557 16.7607 117.381 16.7607C116.599 16.7607 116.247 16.3828 116.247 15.5479V10.1162H118.022V8.85938H116.247V6.65332H114.718ZM127.137 18.1582C129.659 18.1582 131.364 16.3389 131.364 13.4297C131.364 10.5117 129.659 8.70117 127.137 8.70117C124.605 8.70117 122.9 10.5117 122.9 13.4297C122.9 16.3389 124.605 18.1582 127.137 18.1582ZM127.137 16.8135C125.52 16.8135 124.456 15.583 124.456 13.4297C124.456 11.2764 125.52 10.0459 127.137 10.0459C128.754 10.0459 129.809 11.2764 129.809 13.4297C129.809 15.583 128.754 16.8135 127.137 16.8135ZM132.911 18H134.44V12.3047C134.44 11.0127 135.214 10.1602 136.4 10.1602C136.77 10.1602 137.095 10.2041 137.218 10.248V8.7627C137.095 8.74512 136.866 8.70117 136.603 8.70117C135.53 8.70117 134.687 9.34277 134.388 10.3535H134.353V8.85938H132.911V18ZM142.157 18H143.687V12.6211C143.687 11.0742 144.627 10.0547 146.068 10.0547C147.475 10.0547 148.169 10.8633 148.169 12.3398V18H149.698V12.0674C149.698 9.99316 148.538 8.70117 146.534 8.70117C145.119 8.70117 144.144 9.33398 143.634 10.3184H143.599V8.85938H142.157V18ZM155.314 10.0283C156.756 10.0283 157.714 11.1182 157.749 12.6475H152.783C152.88 11.127 153.882 10.0283 155.314 10.0283ZM157.714 15.3809C157.459 16.2422 156.606 16.8311 155.446 16.8311C153.803 16.8311 152.774 15.6797 152.774 13.9307V13.8428H159.331V13.2627C159.331 10.4941 157.811 8.70117 155.341 8.70117C152.818 8.70117 151.201 10.626 151.201 13.4648C151.201 16.3389 152.792 18.1582 155.411 18.1582C157.406 18.1582 158.953 16.9805 159.217 15.3809H157.714ZM172.506 8.85938H170.994L169.166 16.2949H169.131L167.057 8.85938H165.58L163.515 16.2949H163.479L161.651 8.85938H160.131L162.688 18H164.244L166.301 10.9248H166.336L168.401 18H169.957L172.506 8.85938ZM181.893 8.70117C180.565 8.70117 179.502 9.37793 178.939 10.4062H178.904V8.85938H177.454V21.0498H178.983V16.5146H179.019C179.563 17.5166 180.618 18.1582 181.928 18.1582C184.23 18.1582 185.804 16.2949 185.804 13.4297C185.804 10.5645 184.222 8.70117 181.893 8.70117ZM181.594 16.8135C180.029 16.8135 178.975 15.4688 178.975 13.4297C178.975 11.3994 180.029 10.0459 181.594 10.0459C183.22 10.0459 184.239 11.3643 184.239 13.4297C184.239 15.5039 183.22 16.8135 181.594 16.8135ZM190.365 16.8574C189.267 16.8574 188.537 16.2861 188.537 15.416C188.537 14.5547 189.24 14.0098 190.471 13.9307L192.914 13.7812V14.5283C192.914 15.8467 191.807 16.8574 190.365 16.8574ZM190.022 18.1582C191.253 18.1582 192.413 17.4727 192.958 16.4268H192.993V18H194.443V11.6807C194.443 9.86133 193.09 8.70117 190.945 8.70117C188.783 8.70117 187.43 9.91406 187.324 11.4961H188.801C188.994 10.5996 189.732 10.0459 190.91 10.0459C192.176 10.0459 192.914 10.7139 192.914 11.8301V12.5947L190.295 12.7441C188.186 12.8672 186.981 13.8516 186.981 15.416C186.981 17.0596 188.203 18.1582 190.022 18.1582ZM196.228 11.3818C196.228 12.6299 197.019 13.4561 198.627 13.8691L200.235 14.2822C201.264 14.5547 201.642 14.9062 201.642 15.5566C201.642 16.3828 200.877 16.9102 199.638 16.9102C198.398 16.9102 197.678 16.4004 197.511 15.4512H195.981C196.14 17.0684 197.537 18.1582 199.541 18.1582C201.677 18.1582 203.18 17.0332 203.18 15.4424C203.18 14.0977 202.512 13.4297 200.666 12.9639L199.251 12.6211C198.214 12.3574 197.73 11.9355 197.73 11.3027C197.73 10.5029 198.469 9.94922 199.585 9.94922C200.71 9.94922 201.422 10.4941 201.527 11.373H202.986C202.916 9.82617 201.527 8.70117 199.638 8.70117C197.625 8.70117 196.228 9.81738 196.228 11.3818ZM204.612 11.3818C204.612 12.6299 205.403 13.4561 207.012 13.8691L208.62 14.2822C209.648 14.5547 210.026 14.9062 210.026 15.5566C210.026 16.3828 209.262 16.9102 208.022 16.9102C206.783 16.9102 206.062 16.4004 205.896 15.4512H204.366C204.524 17.0684 205.922 18.1582 207.926 18.1582C210.062 18.1582 211.564 17.0332 211.564 15.4424C211.564 14.0977 210.896 13.4297 209.051 12.9639L207.636 12.6211C206.599 12.3574 206.115 11.9355 206.115 11.3027C206.115 10.5029 206.854 9.94922 207.97 9.94922C209.095 9.94922 209.807 10.4941 209.912 11.373H211.371C211.301 9.82617 209.912 8.70117 208.022 8.70117C206.01 8.70117 204.612 9.81738 204.612 11.3818ZM224.783 8.85938H223.271L221.443 16.2949H221.408L219.334 8.85938H217.857L215.792 16.2949H215.757L213.929 8.85938H212.408L214.966 18H216.521L218.578 10.9248H218.613L220.679 18H222.234L224.783 8.85938ZM229.828 18.1582C232.351 18.1582 234.056 16.3389 234.056 13.4297C234.056 10.5117 232.351 8.70117 229.828 8.70117C227.297 8.70117 225.592 10.5117 225.592 13.4297C225.592 16.3389 227.297 18.1582 229.828 18.1582ZM229.828 16.8135C228.211 16.8135 227.147 15.583 227.147 13.4297C227.147 11.2764 228.211 10.0459 229.828 10.0459C231.445 10.0459 232.5 11.2764 232.5 13.4297C232.5 15.583 231.445 16.8135 229.828 16.8135ZM235.603 18H237.132V12.3047C237.132 11.0127 237.905 10.1602 239.092 10.1602C239.461 10.1602 239.786 10.2041 239.909 10.248V8.7627C239.786 8.74512 239.558 8.70117 239.294 8.70117C238.222 8.70117 237.378 9.34277 237.079 10.3535H237.044V8.85938H235.603V18ZM244.181 18.1582C245.499 18.1582 246.545 17.5078 247.134 16.4531H247.16V18H248.619V5.31738H247.09V10.3447H247.055C246.51 9.34277 245.455 8.70117 244.146 8.70117C241.843 8.70117 240.27 10.5645 240.27 13.4297C240.27 16.2949 241.852 18.1582 244.181 18.1582ZM244.471 10.0459C246.044 10.0459 247.099 11.3906 247.099 13.4297C247.099 15.4775 246.044 16.8135 244.471 16.8135C242.854 16.8135 241.834 15.5039 241.834 13.4297C241.834 11.3643 242.854 10.0459 244.471 10.0459ZM255.132 21.4189C256.784 21.4189 257.54 20.7773 258.322 18.6416L261.917 8.85938H260.309L257.777 16.4707H257.751L255.22 8.85938H253.585L256.96 18.0088L256.749 18.6504C256.397 19.7139 255.923 20.127 255.07 20.127C254.877 20.127 254.64 20.1182 254.473 20.083V21.3662C254.64 21.4014 254.947 21.4189 255.132 21.4189ZM266.654 18.1582C269.177 18.1582 270.882 16.3389 270.882 13.4297C270.882 10.5117 269.177 8.70117 266.654 8.70117C264.123 8.70117 262.418 10.5117 262.418 13.4297C262.418 16.3389 264.123 18.1582 266.654 18.1582ZM266.654 16.8135C265.037 16.8135 263.974 15.583 263.974 13.4297C263.974 11.2764 265.037 10.0459 266.654 10.0459C268.271 10.0459 269.326 11.2764 269.326 13.4297C269.326 15.583 268.271 16.8135 266.654 16.8135ZM279.935 8.85938H278.405V14.2295C278.405 15.7852 277.509 16.8047 276.023 16.8047C274.608 16.8047 273.914 16.0049 273.914 14.5195V8.85938H272.385V14.792C272.385 16.8662 273.554 18.1582 275.549 18.1582C276.955 18.1582 277.904 17.5693 278.449 16.5146H278.484V18H279.935V8.85938ZM289.277 10.0283C290.719 10.0283 291.677 11.1182 291.712 12.6475H286.746C286.843 11.127 287.845 10.0283 289.277 10.0283ZM291.677 15.3809C291.422 16.2422 290.569 16.8311 289.409 16.8311C287.766 16.8311 286.737 15.6797 286.737 13.9307V13.8428H293.294V13.2627C293.294 10.4941 291.773 8.70117 289.304 8.70117C286.781 8.70117 285.164 10.626 285.164 13.4648C285.164 16.3389 286.755 18.1582 289.374 18.1582C291.369 18.1582 292.916 16.9805 293.18 15.3809H291.677ZM294.841 18H296.37V12.6211C296.37 11.0742 297.311 10.0547 298.752 10.0547C300.158 10.0547 300.853 10.8633 300.853 12.3398V18H302.382V12.0674C302.382 9.99316 301.222 8.70117 299.218 8.70117C297.803 8.70117 296.827 9.33398 296.317 10.3184H296.282V8.85938H294.841V18ZM304.825 6.65332V8.85938H303.463V10.1162H304.825V15.627C304.825 17.3848 305.476 18.0703 307.154 18.0703C307.515 18.0703 307.937 18.0439 308.121 18V16.7168C308.016 16.7344 307.664 16.7607 307.488 16.7607C306.706 16.7607 306.354 16.3828 306.354 15.5479V10.1162H308.13V8.85938H306.354V6.65332H304.825ZM313.166 10.0283C314.607 10.0283 315.565 11.1182 315.601 12.6475H310.635C310.731 11.127 311.733 10.0283 313.166 10.0283ZM315.565 15.3809C315.311 16.2422 314.458 16.8311 313.298 16.8311C311.654 16.8311 310.626 15.6797 310.626 13.9307V13.8428H317.183V13.2627C317.183 10.4941 315.662 8.70117 313.192 8.70117C310.67 8.70117 309.053 10.626 309.053 13.4648C309.053 16.3389 310.644 18.1582 313.263 18.1582C315.258 18.1582 316.805 16.9805 317.068 15.3809H315.565ZM318.729 18H320.259V12.3047C320.259 11.0127 321.032 10.1602 322.219 10.1602C322.588 10.1602 322.913 10.2041 323.036 10.248V8.7627C322.913 8.74512 322.685 8.70117 322.421 8.70117C321.349 8.70117 320.505 9.34277 320.206 10.3535H320.171V8.85938H318.729V18ZM327.51 10.0283C328.951 10.0283 329.909 11.1182 329.944 12.6475H324.979C325.075 11.127 326.077 10.0283 327.51 10.0283ZM329.909 15.3809C329.654 16.2422 328.802 16.8311 327.642 16.8311C325.998 16.8311 324.97 15.6797 324.97 13.9307V13.8428H331.526V13.2627C331.526 10.4941 330.006 8.70117 327.536 8.70117C325.014 8.70117 323.396 10.626 323.396 13.4648C323.396 16.3389 324.987 18.1582 327.606 18.1582C329.602 18.1582 331.148 16.9805 331.412 15.3809H329.909ZM336.536 18.1582C337.854 18.1582 338.9 17.5078 339.489 16.4531H339.516V18H340.975V5.31738H339.445V10.3447H339.41C338.865 9.34277 337.811 8.70117 336.501 8.70117C334.198 8.70117 332.625 10.5645 332.625 13.4297C332.625 16.2949 334.207 18.1582 336.536 18.1582ZM336.826 10.0459C338.399 10.0459 339.454 11.3906 339.454 13.4297C339.454 15.4775 338.399 16.8135 336.826 16.8135C335.209 16.8135 334.189 15.5039 334.189 13.4297C334.189 11.3643 335.209 10.0459 336.826 10.0459ZM350.194 18.1582C351.513 18.1582 352.559 17.5078 353.147 16.4531H353.174V18H354.633V5.31738H353.104V10.3447H353.068C352.523 9.34277 351.469 8.70117 350.159 8.70117C347.856 8.70117 346.283 10.5645 346.283 13.4297C346.283 16.2949 347.865 18.1582 350.194 18.1582ZM350.484 10.0459C352.058 10.0459 353.112 11.3906 353.112 13.4297C353.112 15.4775 352.058 16.8135 350.484 16.8135C348.867 16.8135 347.848 15.5039 347.848 13.4297C347.848 11.3643 348.867 10.0459 350.484 10.0459ZM360.486 18.1582C363.009 18.1582 364.714 16.3389 364.714 13.4297C364.714 10.5117 363.009 8.70117 360.486 8.70117C357.955 8.70117 356.25 10.5117 356.25 13.4297C356.25 16.3389 357.955 18.1582 360.486 18.1582ZM360.486 16.8135C358.869 16.8135 357.806 15.583 357.806 13.4297C357.806 11.2764 358.869 10.0459 360.486 10.0459C362.104 10.0459 363.158 11.2764 363.158 13.4297C363.158 15.583 362.104 16.8135 360.486 16.8135ZM369.926 10.0283C371.367 10.0283 372.325 11.1182 372.36 12.6475H367.395C367.491 11.127 368.493 10.0283 369.926 10.0283ZM372.325 15.3809C372.07 16.2422 371.218 16.8311 370.058 16.8311C368.414 16.8311 367.386 15.6797 367.386 13.9307V13.8428H373.942V13.2627C373.942 10.4941 372.422 8.70117 369.952 8.70117C367.43 8.70117 365.812 10.626 365.812 13.4648C365.812 16.3389 367.403 18.1582 370.022 18.1582C372.018 18.1582 373.564 16.9805 373.828 15.3809H372.325ZM375.331 11.3818C375.331 12.6299 376.122 13.4561 377.73 13.8691L379.339 14.2822C380.367 14.5547 380.745 14.9062 380.745 15.5566C380.745 16.3828 379.98 16.9102 378.741 16.9102C377.502 16.9102 376.781 16.4004 376.614 15.4512H375.085C375.243 17.0684 376.641 18.1582 378.645 18.1582C380.78 18.1582 382.283 17.0332 382.283 15.4424C382.283 14.0977 381.615 13.4297 379.77 12.9639L378.354 12.6211C377.317 12.3574 376.834 11.9355 376.834 11.3027C376.834 10.5029 377.572 9.94922 378.688 9.94922C379.813 9.94922 380.525 10.4941 380.631 11.373H382.09C382.02 9.82617 380.631 8.70117 378.741 8.70117C376.729 8.70117 375.331 9.81738 375.331 11.3818ZM383.874 18H385.403V12.6211C385.403 11.0742 386.344 10.0547 387.785 10.0547C389.191 10.0547 389.886 10.8633 389.886 12.3398V18H391.415V12.0674C391.415 9.99316 390.255 8.70117 388.251 8.70117C386.836 8.70117 385.86 9.33398 385.351 10.3184H385.315V8.85938H383.874V18ZM393.981 9.79102L395.186 5.31738H393.56L392.707 9.79102H393.981ZM397.796 6.65332V8.85938H396.434V10.1162H397.796V15.627C397.796 17.3848 398.446 18.0703 400.125 18.0703C400.485 18.0703 400.907 18.0439 401.092 18V16.7168C400.986 16.7344 400.635 16.7607 400.459 16.7607C399.677 16.7607 399.325 16.3828 399.325 15.5479V10.1162H401.101V8.85938H399.325V6.65332H397.796ZM406.427 18H407.956V12.2695C407.956 11.0039 408.835 10.0547 410.048 10.0547C411.182 10.0547 411.92 10.7754 411.92 11.874V18H413.449V12.1904C413.449 10.9512 414.302 10.0547 415.515 10.0547C416.719 10.0547 417.413 10.793 417.413 12.041V18H418.942V11.6895C418.942 9.87891 417.773 8.70117 415.963 8.70117C414.68 8.70117 413.607 9.35156 413.098 10.4414H413.062C412.667 9.33398 411.744 8.70117 410.496 8.70117C409.266 8.70117 408.334 9.35156 407.903 10.3184H407.868V8.85938H406.427V18ZM423.908 16.8574C422.81 16.8574 422.08 16.2861 422.08 15.416C422.08 14.5547 422.783 14.0098 424.014 13.9307L426.457 13.7812V14.5283C426.457 15.8467 425.35 16.8574 423.908 16.8574ZM423.565 18.1582C424.796 18.1582 425.956 17.4727 426.501 16.4268H426.536V18H427.986V11.6807C427.986 9.86133 426.633 8.70117 424.488 8.70117C422.326 8.70117 420.973 9.91406 420.867 11.4961H422.344C422.537 10.5996 423.275 10.0459 424.453 10.0459C425.719 10.0459 426.457 10.7139 426.457 11.8301V12.5947L423.838 12.7441C421.729 12.8672 420.524 13.8516 420.524 15.416C420.524 17.0596 421.746 18.1582 423.565 18.1582ZM430.421 6.65332V8.85938H429.059V10.1162H430.421V15.627C430.421 17.3848 431.071 18.0703 432.75 18.0703C433.11 18.0703 433.532 18.0439 433.717 18V16.7168C433.611 16.7344 433.26 16.7607 433.084 16.7607C432.302 16.7607 431.95 16.3828 431.95 15.5479V10.1162H433.726V8.85938H431.95V6.65332H430.421ZM442.69 11.8564C442.497 10.2129 441.135 8.70117 438.85 8.70117C436.327 8.70117 434.648 10.5469 434.648 13.4297C434.648 16.374 436.336 18.1582 438.867 18.1582C440.941 18.1582 442.471 16.875 442.708 15.0557H441.205C440.941 16.1543 440.124 16.8135 438.876 16.8135C437.294 16.8135 436.204 15.5566 436.204 13.4297C436.204 11.3555 437.276 10.0459 438.858 10.0459C440.203 10.0459 440.977 10.8633 441.196 11.8564H442.69ZM444.193 18H445.723V12.6738C445.723 11.0918 446.663 10.0547 448.184 10.0547C449.616 10.0547 450.346 10.9248 450.346 12.375V18H451.875V12.0938C451.875 10.0547 450.662 8.70117 448.658 8.70117C447.27 8.70117 446.268 9.29883 445.758 10.3184H445.723V5.31738H444.193V18ZM455.109 18.0879C455.672 18.0879 456.111 17.6484 456.111 17.0859C456.111 16.5234 455.672 16.084 455.109 16.084C454.547 16.084 454.107 16.5234 454.107 17.0859C454.107 17.6484 454.547 18.0879 455.109 18.0879Z" fill="black"/>
<path fill-rule="evenodd" clip-rule="evenodd" d="M6.11532 0.330444C6.3269 0.118864 6.61386 0 6.91308 0H15.0869C15.3861 0 15.6731 0.118864 15.8847 0.330444L21.6696 6.11532C21.8811 6.3269 22 6.61386 22 6.91308V15.0869C22 15.3861 21.8811 15.6731 21.6696 15.8847L15.8847 21.6696C15.6731 21.8811 15.3861 22 15.0869 22H6.91308C6.61386 22 6.3269 21.8811 6.11532 21.6696L0.330444 15.8847C0.118864 15.6731 0 15.3861 0 15.0869V6.91308C0 6.61386 0.118864 6.3269 0.330444 6.11532L6.11532 0.330444ZM7.38039 2.25641L2.25641 7.38039V14.6196L7.3804 19.7436H14.6196L19.7436 14.6196V7.3804L14.6196 2.25641H7.38039ZM11 5.92308C11.6231 5.92308 12.1282 6.42819 12.1282 7.05128V11C12.1282 11.6231 11.6231 12.1282 11 12.1282C10.3769 12.1282 9.8718 11.6231 9.8718 11V7.05128C9.8718 6.42819 10.3769 5.92308 11 5.92308ZM9.8718 14.9487C9.8718 14.3256 10.3769 13.8205 11 13.8205H11.0099C11.633 13.8205 12.1381 14.3256 12.1381 14.9487C12.1381 15.5718 11.633 16.0769 11.0099 16.0769H11C10.3769 16.0769 9.8718 15.5718 9.8718 14.9487Z" fill="#FF6666"/>
</svg>
