<svg width="411" height="38" viewBox="0 0 411 38" fill="none" xmlns="http://www.w3.org/2000/svg">
<path d="M0.5 2C0.5 1.17157 1.17157 0.5 2 0.5H37.5V37.5H2C1.17157 37.5 0.5 36.8284 0.5 36V2Z" fill="white" stroke="#CBCBCB"/>
<path d="M19.9531 26C22.9512 26 24.7578 24.4961 24.7578 22.0156C24.7578 20.1406 23.4688 18.7832 21.5547 18.5684V18.4902C22.9609 18.2559 24.0645 16.918 24.0645 15.4238C24.0645 13.2949 22.4238 11.9082 19.9238 11.9082H14.2988V26H19.9531ZM16.4863 13.6953H19.3965C20.9785 13.6953 21.877 14.418 21.877 15.7266C21.877 17.123 20.832 17.9043 18.9375 17.9043H16.4863V13.6953ZM16.4863 24.2129V19.5742H19.377C21.4473 19.5742 22.5215 20.3555 22.5215 21.8789C22.5215 23.4023 21.4766 24.2129 19.5039 24.2129H16.4863Z" fill="black"/>
<path d="M111.5 2C111.5 1.17157 110.828 0.5 110 0.5H74.5V37.5H110C110.828 37.5 111.5 36.8284 111.5 36V2Z" fill="white" stroke="#CBCBCB"/>
<path d="M89.7862 9.71265C89.9131 9.28967 90.3024 9 90.744 9H100.656C101.326 9 101.806 9.64574 101.614 10.2873L96.2138 28.2873C96.0869 28.7103 95.6976 29 95.256 29H85.344C84.6742 29 84.1937 28.3543 84.3862 27.7127L89.7862 9.71265Z" fill="black"/>
<path d="M87.6 20H98L95.6245 27.3091C95.4907 27.7211 95.1067 28 94.6735 28H86.3765C85.6971 28 85.2155 27.337 85.4255 26.6909L87.6 20Z" fill="white"/>
<rect x="37.5" y="0.5" width="37" height="37" fill="white" stroke="#CBCBCB"/>
<path d="M53.4863 11.9082H51.2988V21.0488C51.2988 24.0859 53.4668 26.2344 57.002 26.2344C60.5371 26.2344 62.7051 24.0859 62.7051 21.0488V11.9082H60.5273V20.8633C60.5273 22.875 59.248 24.291 57.002 24.291C54.7559 24.291 53.4863 22.875 53.4863 20.8633V11.9082Z" fill="black"/>
<path d="M50 29.623H64.0039V31.0391H50V29.623Z" fill="black"/>
<path d="M142.5 2C142.5 1.17157 143.172 0.5 144 0.5H179.5V37.5H144C143.172 37.5 142.5 36.8284 142.5 36V2Z" fill="white" stroke="#CBCBCB"/>
<circle cx="162" cy="19" r="7" fill="#FEF392"/>
<path d="M165.479 26H167.793L162.705 11.9082H160.342L155.254 26H157.529L158.818 22.1914H164.189L165.479 26ZM161.475 14.252H161.533L163.633 20.4336H159.375L161.475 14.252Z" fill="black"/>
<path d="M200.5 2C200.5 1.17157 199.828 0.5 199 0.5H179.5V37.5H199C199.828 37.5 200.5 36.8284 200.5 36V2Z" fill="white" stroke="#CBCBCB"/>
<path d="M190 23L185 16L195 16L190 23Z" fill="#616161"/>
<path d="M231.5 2C231.5 1.17157 232.172 0.5 233 0.5H268.5V37.5H233C232.172 37.5 231.5 36.8284 231.5 36V2Z" fill="white" stroke="#CBCBCB"/>
<path d="M305.5 2C305.5 1.17157 304.828 0.5 304 0.5H268.5V37.5H304C304.828 37.5 305.5 36.8284 305.5 36V2Z" fill="white" stroke="#CBCBCB"/>
<path d="M246 13H259" stroke="black" stroke-width="2" stroke-linecap="round" stroke-linejoin="round"/>
<path d="M246 19H259" stroke="black" stroke-width="2" stroke-linecap="round" stroke-linejoin="round"/>
<path d="M246 25H259" stroke="black" stroke-width="2" stroke-linecap="round" stroke-linejoin="round"/>
<path d="M241 13H241.01" stroke="black" stroke-width="2" stroke-linecap="round" stroke-linejoin="round"/>
<path d="M241 19H241.01" stroke="black" stroke-width="2" stroke-linecap="round" stroke-linejoin="round"/>
<path d="M241 25H241.01" stroke="black" stroke-width="2" stroke-linecap="round" stroke-linejoin="round"/>
<path d="M283 13H296" stroke="black" stroke-width="2" stroke-linecap="round" stroke-linejoin="round"/>
<path d="M283 19H296" stroke="black" stroke-width="2" stroke-linecap="round" stroke-linejoin="round"/>
<path d="M277 18.2637V18.2773H277.788V18.2637C277.788 17.9031 278.078 17.6373 278.472 17.6373C278.849 17.6373 279.116 17.8705 279.116 18.1634C279.116 18.4346 278.99 18.6325 278.579 19.0285L277.048 20.4495V21H280V20.3492H278.168V20.3329L279.159 19.4136C279.606 18.9851 279.944 18.619 279.944 18.1308C279.944 17.4773 279.356 17 278.5 17C277.614 17 277 17.5234 277 18.2637Z" fill="black"/>
<path d="M283 25H296" stroke="black" stroke-width="2" stroke-linecap="round" stroke-linejoin="round"/>
<path d="M278.111 15H279V11H278.108L277 11.7179V12.4719L278.094 11.7678H278.111V15Z" fill="black"/>
<path d="M278.001 25.2429H278.477C278.913 25.2429 279.178 25.4552 279.178 25.8056C279.178 26.1294 278.895 26.355 278.491 26.355C278.065 26.355 277.798 26.1427 277.773 25.8188H277C277.037 26.5249 277.607 27 278.48 27C279.371 27 280 26.5435 280 25.856C280 25.3251 279.628 24.9801 279.053 24.9323V24.9164C279.526 24.8315 279.85 24.4917 279.85 24.0219C279.85 23.4088 279.302 23 278.499 23C277.661 23 277.104 23.4618 277.075 24.1705H277.819C277.84 23.8361 278.089 23.6158 278.464 23.6158C278.865 23.6158 279.087 23.8202 279.087 24.1307C279.087 24.4466 278.839 24.6642 278.469 24.6642H278.001V25.2429Z" fill="black"/>
<path d="M336.5 2C336.5 1.17157 337.172 0.5 338 0.5H373.5V37.5H338C337.172 37.5 336.5 36.8284 336.5 36V2Z" fill="white" stroke="#CBCBCB"/>
<path d="M410.5 2C410.5 1.17157 409.828 0.5 409 0.5H373.5V37.5H409C409.828 37.5 410.5 36.8284 410.5 36V2Z" fill="white" stroke="#CBCBCB"/>
<path fill-rule="evenodd" clip-rule="evenodd" d="M355 15H349C346.791 15 345 16.7909 345 19C345 21.2091 346.791 23 349 23H355V22H349C347.343 22 346 20.6569 346 19C346 17.3431 347.343 16 349 16H355V15ZM356 22H361C362.657 22 364 20.6569 364 19C364 17.3431 362.657 16 361 16H356V15H361C363.209 15 365 16.7909 365 19C365 21.2091 363.209 23 361 23H356V22Z" fill="black"/>
<line x1="350.5" y1="19.5" x2="359.5" y2="19.5" stroke="black" stroke-linecap="round"/>
<path d="M399 10H385C383.895 10 383 10.8954 383 12V26C383 27.1046 383.895 28 385 28H399C400.105 28 401 27.1046 401 26V12C401 10.8954 400.105 10 399 10Z" stroke="black" stroke-linecap="round" stroke-linejoin="round"/>
<path d="M388.5 17C389.328 17 390 16.3284 390 15.5C390 14.6716 389.328 14 388.5 14C387.672 14 387 14.6716 387 15.5C387 16.3284 387.672 17 388.5 17Z" stroke="black" stroke-linecap="round" stroke-linejoin="round"/>
<path d="M401 22L396 17L385 28" stroke="black" stroke-linecap="round" stroke-linejoin="round"/>
</svg>
