<svg width="71" height="24" viewBox="0 0 71 24" fill="none" xmlns="http://www.w3.org/2000/svg">
<rect x="1.5" y="13.5" width="21" height="8" rx="0.5" stroke="#2AAC27"/>
<rect x="5.5" y="3.5" width="13" height="10" rx="0.5" stroke="#2AAC27"/>
<path d="M16 16H19" stroke="#2AAC27" stroke-linecap="round"/>
<path d="M4 18H20" stroke="#2AAC27" stroke-linecap="round"/>
<path d="M37.6719 5.81738V18.5H39.2539V13.9736H42.1807C44.5625 13.9736 46.2588 12.2949 46.2588 9.88672C46.2588 7.4873 44.5801 5.81738 42.1982 5.81738H37.6719ZM39.2539 7.22363H41.7852C43.6045 7.22363 44.6328 8.20801 44.6328 9.88672C44.6328 11.5742 43.5957 12.5674 41.7852 12.5674H39.2539V7.22363ZM47.8408 18.5H49.3701V12.8047C49.3701 11.5127 50.1436 10.6602 51.3301 10.6602C51.6992 10.6602 52.0244 10.7041 52.1475 10.748V9.2627C52.0244 9.24512 51.7959 9.20117 51.5322 9.20117C50.46 9.20117 49.6162 9.84277 49.3174 10.8535H49.2822V9.35938H47.8408V18.5ZM53.4746 18.5H55.0039V9.35938H53.4746V18.5ZM54.2393 7.82129C54.7666 7.82129 55.1973 7.39062 55.1973 6.87207C55.1973 6.34473 54.7666 5.92285 54.2393 5.92285C53.7207 5.92285 53.29 6.34473 53.29 6.87207C53.29 7.39062 53.7207 7.82129 54.2393 7.82129ZM57.0693 18.5H58.5986V13.1211C58.5986 11.5742 59.5391 10.5547 60.9805 10.5547C62.3867 10.5547 63.0811 11.3633 63.0811 12.8398V18.5H64.6104V12.5674C64.6104 10.4932 63.4502 9.20117 61.4463 9.20117C60.0312 9.20117 59.0557 9.83398 58.5459 10.8184H58.5107V9.35938H57.0693V18.5ZM67.0537 7.15332V9.35938H65.6914V10.6162H67.0537V16.127C67.0537 17.8848 67.7041 18.5703 69.3828 18.5703C69.7432 18.5703 70.165 18.5439 70.3496 18.5V17.2168C70.2441 17.2344 69.8926 17.2607 69.7168 17.2607C68.9346 17.2607 68.583 16.8828 68.583 16.0479V10.6162H70.3584V9.35938H68.583V7.15332H67.0537Z" fill="#2AAC27"/>
</svg>
