<svg width="15" height="15" viewBox="0 0 15 15" fill="none" xmlns="http://www.w3.org/2000/svg">
<path d="M10.625 1.8747C10.7892 1.71055 10.984 1.58034 11.1985 1.4915C11.413 1.40266 11.6429 1.35693 11.875 1.35693C12.1071 1.35693 12.337 1.40266 12.5515 1.4915C12.766 1.58034 12.9608 1.71055 13.125 1.8747C13.2892 2.03885 13.4194 2.23373 13.5082 2.44821C13.597 2.66268 13.6428 2.89255 13.6428 3.1247C13.6428 3.35685 13.597 3.58672 13.5082 3.8012C13.4194 4.01567 13.2892 4.21055 13.125 4.3747L4.6875 12.8122L1.25 13.7497L2.1875 10.3122L10.625 1.8747Z" stroke="#0072BC" stroke-linecap="round" stroke-linejoin="round"/>
</svg>
