<svg width="50" height="50" viewBox="0 0 50 50" fill="none" xmlns="http://www.w3.org/2000/svg">
<path d="M35 36V33.6667C35 32.429 34.4732 31.242 33.5355 30.3668C32.5979 29.4917 31.3261 29 30 29H20C18.6739 29 17.4021 29.4917 16.4645 30.3668C15.5268 31.242 15 32.429 15 33.6667V36" fill="#0B80CC"/>
<path d="M35 36V33.6667C35 32.429 34.4732 31.242 33.5355 30.3668C32.5979 29.4917 31.3261 29 30 29H20C18.6739 29 17.4021 29.4917 16.4645 30.3668C15.5268 31.242 15 32.429 15 33.6667V36H35Z" stroke="#0B80CC" stroke-width="2" stroke-linecap="round" stroke-linejoin="round"/>
<path d="M25 24C27.7614 24 30 21.7614 30 19C30 16.2386 27.7614 14 25 14C22.2386 14 20 16.2386 20 19C20 21.7614 22.2386 24 25 24Z" fill="#0B80CC" stroke="#0B80CC" stroke-width="2" stroke-linecap="round" stroke-linejoin="round"/>
<circle cx="25" cy="25" r="22.75" stroke="#0B80CC" stroke-width="2"/>
</svg>
