<svg width="22" height="22" viewBox="0 0 22 22" fill="none" xmlns="http://www.w3.org/2000/svg">
<path d="M16.3627 11.6254C16.3902 14.652 18.9715 15.6592 19 15.6721C18.9782 15.743 18.5877 17.1075 17.6402 18.5166C16.8212 19.7349 15.9711 20.9488 14.6322 20.9742C13.3165 20.9987 12.8934 20.1799 11.3891 20.1799C9.88521 20.1799 9.41529 20.9488 8.16971 20.9987C6.87715 21.0486 5.89287 19.681 5.06707 18.4673C3.37973 15.9843 2.09018 11.4507 3.82165 8.39056C4.68177 6.87085 6.21917 5.90863 7.8877 5.88384C9.15684 5.85921 10.3548 6.75284 11.1306 6.75284C11.906 6.75284 13.3618 5.6781 14.8922 5.83587C15.5329 5.86307 17.3313 6.09924 18.4861 7.81986C18.3933 7.87862 16.3404 9.09503 16.3627 11.6254ZM13.89 4.19332C14.5762 3.34798 15.038 2.17085 14.9121 1C13.9229 1.04041 12.7269 1.67083 12.0175 2.51585C11.3816 3.26395 10.8249 4.46169 10.975 5.60936C12.0776 5.69629 13.2037 5.03914 13.89 4.19332Z" fill="black"/>
</svg>
