<svg width="51" height="37" viewBox="0 0 51 37" fill="none" xmlns="http://www.w3.org/2000/svg">
<path d="M45.1154 0H5.88462C4.32392 0 2.82714 0.531573 1.72356 1.47778C0.619985 2.42399 0 3.70732 0 5.04545V23.5455C0 24.8836 0.619985 26.1669 1.72356 27.1131C2.82714 28.0593 4.32392 28.5909 5.88462 28.5909H7.84615V35.3182C7.84482 35.6464 7.95554 35.9678 8.16468 36.2428C8.37381 36.5177 8.6722 36.7342 9.02308 36.8655C9.27254 36.9519 9.53866 36.9975 9.80769 37C10.3032 36.9985 10.7798 36.8363 11.1415 36.5459L21.1258 28.5909H45.1154C46.6761 28.5909 48.1729 28.0593 49.2764 27.1131C50.38 26.1669 51 24.8836 51 23.5455V5.04545C51 3.70732 50.38 2.42399 49.2764 1.47778C48.1729 0.531573 46.6761 0 45.1154 0ZM31.3846 20.1818H11.7692C11.249 20.1818 10.7501 20.0046 10.3822 19.6892C10.0144 19.3738 9.80769 18.946 9.80769 18.5C9.80769 18.054 10.0144 17.6262 10.3822 17.3108C10.7501 16.9954 11.249 16.8182 11.7692 16.8182H31.3846C31.9048 16.8182 32.4038 16.9954 32.7716 17.3108C33.1395 17.6262 33.3462 18.054 33.3462 18.5C33.3462 18.946 33.1395 19.3738 32.7716 19.6892C32.4038 20.0046 31.9048 20.1818 31.3846 20.1818ZM39.2308 11.7727H11.7692C11.249 11.7727 10.7501 11.5955 10.3822 11.2801C10.0144 10.9647 9.80769 10.537 9.80769 10.0909C9.80769 9.64486 10.0144 9.21709 10.3822 8.90168C10.7501 8.58628 11.249 8.40909 11.7692 8.40909H39.2308C39.751 8.40909 40.2499 8.58628 40.6178 8.90168C40.9856 9.21709 41.1923 9.64486 41.1923 10.0909C41.1923 10.537 40.9856 10.9647 40.6178 11.2801C40.2499 11.5955 39.751 11.7727 39.2308 11.7727Z" fill="#1FAEFF"/>
</svg>
