<svg width="20" height="20" viewBox="0 0 20 20" fill="none" xmlns="http://www.w3.org/2000/svg">
<path d="M19.0477 10.2225C19.0592 9.53504 18.9902 8.84865 18.8423 8.17813H9.71822V11.8892H15.074C14.9725 12.5399 14.7442 13.1627 14.4028 13.7203C14.0613 14.2778 13.6138 14.7586 13.0872 15.1336L13.0685 15.2579L15.9535 17.5576L16.1533 17.5781C17.9889 15.8337 19.0473 13.2669 19.0473 10.2225" fill="#4285F4"/>
<path d="M9.71825 20.0007C12.3421 20.0007 14.5449 19.1118 16.1539 17.5784L13.0872 15.1339C12.2666 15.7229 11.1652 16.1341 9.71825 16.1341C8.48933 16.1267 7.29388 15.7212 6.3015 14.9753C5.30913 14.2294 4.57022 13.1808 4.18962 11.9784L4.07573 11.9884L1.07588 14.3773L1.03667 14.4895C1.8446 16.1464 3.08451 17.5393 4.61775 18.5126C6.15098 19.4859 7.91711 20.0011 9.71862 20.0007" fill="#34A853"/>
<path d="M4.18952 11.9785C3.97696 11.3419 3.86727 10.6738 3.86484 10.0007C3.86875 9.32876 3.97439 8.66152 4.17795 8.02302L4.17253 7.89045L1.1359 5.46317L1.03657 5.51177C0.355013 6.90419 0 8.44157 0 10.0006C0 11.5597 0.355013 13.0971 1.03657 14.4895L4.18952 11.9785Z" fill="#FBBC05"/>
<path d="M9.71816 3.86737C11.1107 3.84512 12.4575 4.37877 13.4759 5.35633L16.2186 2.6007C14.4595 0.902582 12.13 -0.0291531 9.71816 0.000695639C7.91667 0.000254588 6.15056 0.515466 4.61732 1.48872C3.08409 2.46197 1.84417 3.8549 1.03621 5.51175L4.1787 8.023C4.56305 6.8208 5.30441 5.77306 6.29825 5.02749C7.29209 4.28193 8.48828 3.87615 9.71816 3.86737Z" fill="#EB4335"/>
</svg>
