<svg width="66" height="18" viewBox="0 0 66 18" fill="none" xmlns="http://www.w3.org/2000/svg">
<path d="M9.00006 1.5C5.69181 1.5 3.00006 4.19175 3.00006 7.49625C2.97831 12.33 8.77206 16.338 9.00006 16.5C9.00006 16.5 15.0218 12.33 15.0001 7.5C15.0001 4.19175 12.3083 1.5 9.00006 1.5ZM9.00006 10.5C7.34256 10.5 6.00006 9.1575 6.00006 7.5C6.00006 5.8425 7.34256 4.5 9.00006 4.5C10.6576 4.5 12.0001 5.8425 12.0001 7.5C12.0001 9.1575 10.6576 10.5 9.00006 10.5Z" fill="#0072BC"/>
<path d="M23.4717 11.252H24.9824C25.0371 11.7396 25.2809 12.1315 25.7139 12.4277C26.1468 12.724 26.6891 12.8721 27.3408 12.8721C27.9606 12.8721 28.471 12.7285 28.8721 12.4414C29.2777 12.1543 29.4805 11.7897 29.4805 11.3477C29.4805 10.9648 29.3369 10.6527 29.0498 10.4111C28.7627 10.165 28.3001 9.96452 27.6621 9.80957L26.3838 9.50195C25.4769 9.2832 24.807 8.95736 24.374 8.52441C23.9456 8.09147 23.7314 7.53092 23.7314 6.84277C23.7314 5.99512 24.0641 5.30469 24.7295 4.77148C25.3994 4.23828 26.263 3.97168 27.3203 3.97168C28.3594 3.97168 29.207 4.23828 29.8633 4.77148C30.5195 5.30013 30.859 5.99056 30.8818 6.84277H29.3916C29.346 6.35514 29.1341 5.97005 28.7559 5.6875C28.3822 5.40495 27.8968 5.26367 27.2998 5.26367C26.7074 5.26367 26.2243 5.40039 25.8506 5.67383C25.4814 5.94727 25.2969 6.30273 25.2969 6.74023C25.2969 7.08659 25.4359 7.37142 25.7139 7.59473C25.9919 7.81348 26.4499 8.0026 27.0879 8.16211L28.1748 8.42871C29.1865 8.66569 29.9157 9.00065 30.3623 9.43359C30.8135 9.86198 31.0391 10.4385 31.0391 11.1631C31.0391 12.0837 30.6973 12.8151 30.0137 13.3574C29.3301 13.8952 28.4027 14.1641 27.2314 14.1641C26.1331 14.1641 25.2422 13.902 24.5586 13.3779C23.8796 12.8493 23.5173 12.1406 23.4717 11.252ZM32.29 14V4.13574H33.7529V8.01172H33.7871C33.9876 7.58789 34.2816 7.26204 34.6689 7.03418C35.0563 6.80176 35.5212 6.68555 36.0635 6.68555C36.8473 6.68555 37.4626 6.92708 37.9092 7.41016C38.3604 7.89323 38.5859 8.54492 38.5859 9.36523V14H37.1025V9.65234C37.1025 9.11458 36.9681 8.69759 36.6992 8.40137C36.4349 8.10514 36.0452 7.95703 35.5303 7.95703C34.988 7.95703 34.5573 8.13021 34.2383 8.47656C33.9238 8.81836 33.7666 9.27409 33.7666 9.84375V14H32.29ZM40.0625 14V6.80859H41.5391V14H40.0625ZM41.4092 5.50977C41.2406 5.67383 41.0378 5.75586 40.8008 5.75586C40.5638 5.75586 40.361 5.67383 40.1924 5.50977C40.0283 5.3457 39.9463 5.14746 39.9463 4.91504C39.9463 4.67806 40.0283 4.47754 40.1924 4.31348C40.361 4.14941 40.5638 4.06738 40.8008 4.06738C41.0423 4.06738 41.2451 4.14941 41.4092 4.31348C41.5778 4.47754 41.6621 4.67806 41.6621 4.91504C41.6621 5.14746 41.5778 5.3457 41.4092 5.50977ZM46.7959 6.69238C47.7119 6.69238 48.4456 7.02734 48.9971 7.69727C49.5485 8.36719 49.8242 9.26953 49.8242 10.4043C49.8242 11.5391 49.5508 12.4437 49.0039 13.1182C48.457 13.7881 47.7301 14.123 46.8232 14.123C46.3128 14.123 45.8594 14.0068 45.4629 13.7744C45.071 13.542 44.7702 13.223 44.5605 12.8174H44.5264V16.3789H43.0498V6.80859H44.4785V8.0459H44.5059C44.7201 7.62663 45.0277 7.29622 45.4287 7.05469C45.8298 6.81315 46.2855 6.69238 46.7959 6.69238ZM46.4062 12.8721C46.9896 12.8721 47.4521 12.651 47.7939 12.209C48.1357 11.7624 48.3066 11.1608 48.3066 10.4043C48.3066 9.65234 48.1357 9.05306 47.7939 8.60645C47.4521 8.15983 46.9896 7.93652 46.4062 7.93652C45.8411 7.93652 45.3854 8.16211 45.0391 8.61328C44.6927 9.06445 44.5195 9.66146 44.5195 10.4043C44.5195 11.1517 44.6904 11.751 45.0322 12.2021C45.3786 12.6488 45.8366 12.8721 46.4062 12.8721ZM54.2402 5.10645H55.7236V6.80859H57.0908V7.97754H55.7236V11.9424C55.7236 12.2523 55.7943 12.4801 55.9355 12.626C56.0768 12.7718 56.2979 12.8447 56.5986 12.8447C56.8174 12.8447 56.9792 12.8333 57.084 12.8105V13.9795C56.9017 14.0251 56.6283 14.0479 56.2637 14.0479C55.5391 14.0479 55.0195 13.8997 54.7051 13.6035C54.3952 13.3027 54.2402 12.8037 54.2402 12.1064V7.97754H53.1943V6.80859H54.2402V5.10645ZM63.7012 13.1387C63.0814 13.804 62.2542 14.1367 61.2197 14.1367C60.1852 14.1367 59.3581 13.804 58.7383 13.1387C58.1185 12.4688 57.8086 11.5573 57.8086 10.4043C57.8086 9.25586 58.1185 8.34896 58.7383 7.68359C59.3581 7.01367 60.1852 6.67871 61.2197 6.67871C62.2542 6.67871 63.0814 7.01367 63.7012 7.68359C64.321 8.34896 64.6309 9.25586 64.6309 10.4043C64.6309 11.5573 64.321 12.4688 63.7012 13.1387ZM61.2197 12.9199C61.8076 12.9199 62.2725 12.6989 62.6143 12.2568C62.9561 11.8148 63.127 11.1973 63.127 10.4043C63.127 9.61589 62.9538 9.00065 62.6074 8.55859C62.2656 8.11654 61.8031 7.89551 61.2197 7.89551C60.6364 7.89551 60.1715 8.11654 59.8252 8.55859C59.4834 9.00065 59.3125 9.61589 59.3125 10.4043C59.3125 11.1973 59.4834 11.8148 59.8252 12.2568C60.1715 12.6989 60.6364 12.9199 61.2197 12.9199Z" fill="#0072BC"/>
</svg>
