<svg width="20" height="20" viewBox="0 0 20 20" fill="none" xmlns="http://www.w3.org/2000/svg">
<path fill-rule="evenodd" clip-rule="evenodd" d="M10 0C10.4645 0 10.8411 0.376583 10.8411 0.841122V9.15888H19.1589C19.6234 9.15888 20 9.53546 20 10C20 10.4645 19.6234 10.8411 19.1589 10.8411H10.8411V19.1589C10.8411 19.6234 10.4645 20 10 20C9.53546 20 9.15888 19.6234 9.15888 19.1589V10.8411H0.841122C0.376583 10.8411 0 10.4645 0 10C0 9.53546 0.376583 9.15888 0.841122 9.15888H9.15888V0.841122C9.15888 0.376583 9.53546 0 10 0Z" fill="#0072BC"/>
</svg>
