<svg width="214" height="40" viewBox="0 0 214 40" fill="none" xmlns="http://www.w3.org/2000/svg">
<path d="M0 31.3118V1.64453H7.90344L14.1636 12.5251C15.9634 15.6562 17.6849 19.3353 19.0935 22.7012H19.1717C18.7804 18.7874 18.6239 14.7952 18.6239 10.3334V1.64453H24.8841V31.3118H17.7632L11.3465 19.8832C9.54673 16.6739 7.59043 12.9165 6.10365 9.39403H5.94714C6.1819 13.3079 6.26015 17.5349 6.26015 22.3881V31.3118H0Z" fill="#0072BC"/>
<path d="M37.6406 3.75754C37.6406 5.63621 36.232 7.12348 33.9627 7.12348C31.8499 7.12348 30.4414 5.63621 30.4414 3.75754C30.4414 1.87888 31.8499 0.391602 34.041 0.391602C36.232 0.391602 37.5623 1.8006 37.6406 3.75754ZM30.5979 31.3113V9.70665H37.4058V31.233H30.5979V31.3113Z" fill="#0072BC"/>
<path d="M59.2396 30.7625C57.9876 31.3105 55.7183 31.7802 53.136 31.7802C46.0933 31.7802 41.5547 27.5532 41.5547 20.743C41.5547 14.4808 45.9368 9.31445 53.9967 9.31445C55.7965 9.31445 57.7528 9.62757 59.1613 10.1755L58.0658 15.1853C57.2833 14.7939 56.0313 14.4808 54.2315 14.4808C50.6319 14.4808 48.3626 16.9857 48.3626 20.5082C48.3626 24.5003 51.0232 26.5355 54.3097 26.5355C55.953 26.5355 57.205 26.2224 58.2223 25.831L59.2396 30.7625Z" fill="#0072BC"/>
<path d="M62.9141 0H69.722V12.2896H69.8002C70.5045 11.3503 71.3653 10.6458 72.4608 10.0978C73.4781 9.54988 74.7301 9.23677 75.9821 9.23677C80.286 9.23677 83.6508 12.2113 83.6508 18.7084V31.3111H76.8429V19.4129C76.8429 16.5949 75.8256 14.6379 73.3216 14.6379C71.5218 14.6379 70.4262 15.8121 69.9567 16.9863C69.8002 17.3776 69.722 18.0039 69.722 18.4735V31.2328H62.9141V0Z" fill="#0072BC"/>
<path d="M110.572 20.2735C110.572 28.1795 104.938 31.7803 99.0689 31.7803C92.7305 31.7803 87.8007 27.6316 87.8007 20.6649C87.8007 13.6982 92.4175 9.23633 99.4602 9.23633C106.19 9.23633 110.572 13.7764 110.572 20.2735ZM94.8433 20.5083C94.8433 24.1874 96.4084 27.0054 99.3037 27.0054C101.964 27.0054 103.608 24.4222 103.608 20.5083C103.608 17.2989 102.355 14.0895 99.3037 14.0895C96.0171 14.0113 94.8433 17.2989 94.8433 20.5083Z" fill="#0072BC"/>
<path d="M115.264 24.344C117.064 25.2834 119.881 26.2227 122.776 26.2227C125.906 26.2227 127.55 24.9702 127.55 23.0133C127.55 21.2129 126.141 20.117 122.541 18.8646C117.533 17.1425 114.247 14.4028 114.247 10.0975C114.247 5.00943 118.551 1.17383 125.593 1.17383C129.036 1.17383 131.462 1.87833 133.262 2.6611L131.775 8.06227C130.601 7.51432 128.41 6.65327 125.515 6.65327C122.541 6.65327 121.133 7.98399 121.133 9.54954C121.133 11.4282 122.776 12.2893 126.689 13.6983C132.01 15.6552 134.436 18.3949 134.436 22.6219C134.436 27.5534 130.601 31.8587 122.307 31.8587C118.864 31.8587 115.499 30.9194 113.855 29.98L115.264 24.344Z" fill="#2AAC27"/>
<path d="M138.664 0H145.472V12.2896H145.55C146.255 11.3503 147.115 10.6458 148.211 10.0978C149.228 9.54988 150.48 9.23677 151.732 9.23677C156.036 9.23677 159.401 12.2113 159.401 18.7084V31.3111H152.593V19.4129C152.593 16.5949 151.576 14.6379 149.072 14.6379C147.272 14.6379 146.176 15.8121 145.629 16.9863C145.472 17.3776 145.394 18.0039 145.394 18.4735V31.2328H138.586V0H138.664Z" fill="#2AAC27"/>
<path d="M186.318 20.2735C186.318 28.1795 180.684 31.7803 174.815 31.7803C168.477 31.7803 163.547 27.6316 163.547 20.6649C163.547 13.6982 168.164 9.23633 175.206 9.23633C181.936 9.23633 186.318 13.7764 186.318 20.2735ZM170.59 20.5083C170.59 24.1874 172.155 27.0054 175.05 27.0054C177.71 27.0054 179.354 24.4222 179.354 20.5083C179.354 17.2989 178.102 14.0895 175.05 14.0895C171.842 14.0113 170.59 17.2989 170.59 20.5083Z" fill="#2AAC27"/>
<path d="M190.543 16.9858C190.543 14.1678 190.465 11.7412 190.387 9.70599H196.256L196.569 12.7588H196.647C198.29 10.4888 200.716 9.23633 203.924 9.23633C208.698 9.23633 213.001 13.3068 213.001 20.1952C213.001 28.023 207.915 31.702 203.064 31.702C200.481 31.702 198.368 30.6844 197.429 29.2754H197.351V39.9995H190.543V16.9858ZM197.351 22.0739C197.351 22.5435 197.429 23.0132 197.508 23.4829C197.977 25.2833 199.542 26.6923 201.498 26.6923C204.394 26.6923 206.194 24.2656 206.194 20.5866C206.194 17.1424 204.629 14.5592 201.655 14.5592C199.699 14.5592 197.977 15.9682 197.586 17.9252C197.508 18.3165 197.429 18.7079 197.429 19.0993V22.0739H197.351Z" fill="#2AAC27"/>
</svg>
