<svg width="481" height="44" viewBox="0 0 481 44" fill="none" xmlns="http://www.w3.org/2000/svg">
<path d="M39.9375 15.7344V17H33.0938V5.72656H34.5V15.7344H39.9375ZM44.4062 17.1406C43.2708 17.1406 42.3594 16.763 41.6719 16.0078C40.9844 15.2474 40.6406 14.224 40.6406 12.9375C40.6406 11.651 40.9844 10.6302 41.6719 9.875C42.3594 9.11458 43.2708 8.73438 44.4062 8.73438C45.5365 8.73438 46.4453 9.11458 47.1328 9.875C47.8203 10.6302 48.1641 11.651 48.1641 12.9375C48.1641 14.2188 47.8203 15.2396 47.1328 16C46.4453 16.7604 45.5365 17.1406 44.4062 17.1406ZM42.6641 15.1484C43.0964 15.6797 43.6771 15.9453 44.4062 15.9453C45.1354 15.9453 45.7135 15.6823 46.1406 15.1562C46.5677 14.625 46.7812 13.8854 46.7812 12.9375C46.7812 11.9896 46.5677 11.2526 46.1406 10.7266C45.7135 10.1953 45.1354 9.92969 44.4062 9.92969C43.6771 9.92969 43.0964 10.1953 42.6641 10.7266C42.237 11.2578 42.0234 11.9948 42.0234 12.9375C42.0234 13.8802 42.237 14.6172 42.6641 15.1484ZM52.9062 17.1406C51.7708 17.1406 50.8594 16.763 50.1719 16.0078C49.4844 15.2474 49.1406 14.224 49.1406 12.9375C49.1406 11.651 49.4844 10.6302 50.1719 9.875C50.8594 9.11458 51.7708 8.73438 52.9062 8.73438C54.0365 8.73438 54.9453 9.11458 55.6328 9.875C56.3203 10.6302 56.6641 11.651 56.6641 12.9375C56.6641 14.2188 56.3203 15.2396 55.6328 16C54.9453 16.7604 54.0365 17.1406 52.9062 17.1406ZM51.1641 15.1484C51.5964 15.6797 52.1771 15.9453 52.9062 15.9453C53.6354 15.9453 54.2135 15.6823 54.6406 15.1562C55.0677 14.625 55.2812 13.8854 55.2812 12.9375C55.2812 11.9896 55.0677 11.2526 54.6406 10.7266C54.2135 10.1953 53.6354 9.92969 52.9062 9.92969C52.1771 9.92969 51.5964 10.1953 51.1641 10.7266C50.737 11.2578 50.5234 11.9948 50.5234 12.9375C50.5234 13.8802 50.737 14.6172 51.1641 15.1484ZM59.4688 12.4844L63.0625 8.875H64.7109L61.1875 12.3828L64.8203 17H63.2422L60.2266 13.2188L59.4688 13.9375V17H58.1094V5.72656H59.4688V12.4844ZM65.3516 11.1172C65.3516 10.4193 65.6328 9.84896 66.1953 9.40625C66.763 8.95833 67.4922 8.73438 68.3828 8.73438C69.2214 8.73438 69.9193 8.95833 70.4766 9.40625C71.0339 9.85417 71.3281 10.4219 71.3594 11.1094H70.0625C70.0156 10.7135 69.8385 10.4036 69.5312 10.1797C69.2292 9.95573 68.8307 9.84375 68.3359 9.84375C67.8411 9.84375 67.4427 9.95573 67.1406 10.1797C66.8385 10.3984 66.6875 10.6875 66.6875 11.0469C66.6875 11.599 67.138 11.9896 68.0391 12.2188L69.2969 12.5234C70.1146 12.7318 70.6901 13.0026 71.0234 13.3359C71.362 13.6641 71.5312 14.1276 71.5312 14.7266C71.5312 15.4349 71.2292 16.0156 70.625 16.4688C70.0208 16.9167 69.2448 17.1406 68.2969 17.1406C67.4115 17.1406 66.6797 16.9219 66.1016 16.4844C65.5286 16.0417 65.2057 15.4583 65.1328 14.7344H66.4922C66.6432 15.599 67.2734 16.0312 68.3828 16.0312C68.9297 16.0312 69.362 15.9245 69.6797 15.7109C70.0026 15.4922 70.1641 15.1979 70.1641 14.8281C70.1641 14.5365 70.0677 14.3047 69.875 14.1328C69.6875 13.9609 69.3672 13.8151 68.9141 13.6953L67.4844 13.3281C66.0625 12.9635 65.3516 12.2266 65.3516 11.1172ZM76.2969 17V5.72656H77.6562V17H76.2969ZM79.5625 17V8.875H80.9219V17H79.5625ZM80.2422 7.50781C80.013 7.50781 79.8151 7.42448 79.6484 7.25781C79.4818 7.09115 79.3984 6.89323 79.3984 6.66406C79.3984 6.42969 79.4818 6.23177 79.6484 6.07031C79.8151 5.90365 80.013 5.82031 80.2422 5.82031C80.4766 5.82031 80.6771 5.90365 80.8438 6.07031C81.0104 6.23177 81.0938 6.42969 81.0938 6.66406C81.0938 6.89323 81.0104 7.09115 80.8438 7.25781C80.6771 7.42448 80.4766 7.50781 80.2422 7.50781ZM84.1875 12.4844L87.7812 8.875H89.4297L85.9062 12.3828L89.5391 17H87.9609L84.9453 13.2188L84.1875 13.9375V17H82.8281V5.72656H84.1875V12.4844ZM93.3906 9.91406C92.7604 9.91406 92.237 10.1328 91.8203 10.5703C91.4089 11.0026 91.1823 11.5599 91.1406 12.2422H95.5547C95.5391 11.5547 95.3333 10.9948 94.9375 10.5625C94.5417 10.1302 94.026 9.91406 93.3906 9.91406ZM95.5234 14.6719H96.8594C96.7396 15.3906 96.3646 15.9818 95.7344 16.4453C95.1094 16.9089 94.3568 17.1406 93.4766 17.1406C92.3151 17.1406 91.401 16.7656 90.7344 16.0156C90.0677 15.2656 89.7344 14.25 89.7344 12.9688C89.7344 11.6979 90.0677 10.6745 90.7344 9.89844C91.4062 9.1224 92.2995 8.73438 93.4141 8.73438C94.5078 8.73438 95.3724 9.10156 96.0078 9.83594C96.6432 10.5703 96.9609 11.5547 96.9609 12.7891V13.3047H91.1328V13.3828C91.1328 14.1641 91.3464 14.7891 91.7734 15.2578C92.2005 15.7266 92.7786 15.9609 93.5078 15.9609C94.0182 15.9609 94.4531 15.8438 94.8125 15.6094C95.1719 15.375 95.4089 15.0625 95.5234 14.6719ZM101.477 11.1172C101.477 10.4193 101.758 9.84896 102.32 9.40625C102.888 8.95833 103.617 8.73438 104.508 8.73438C105.346 8.73438 106.044 8.95833 106.602 9.40625C107.159 9.85417 107.453 10.4219 107.484 11.1094H106.188C106.141 10.7135 105.964 10.4036 105.656 10.1797C105.354 9.95573 104.956 9.84375 104.461 9.84375C103.966 9.84375 103.568 9.95573 103.266 10.1797C102.964 10.3984 102.812 10.6875 102.812 11.0469C102.812 11.599 103.263 11.9896 104.164 12.2188L105.422 12.5234C106.24 12.7318 106.815 13.0026 107.148 13.3359C107.487 13.6641 107.656 14.1276 107.656 14.7266C107.656 15.4349 107.354 16.0156 106.75 16.4688C106.146 16.9167 105.37 17.1406 104.422 17.1406C103.536 17.1406 102.805 16.9219 102.227 16.4844C101.654 16.0417 101.331 15.4583 101.258 14.7344H102.617C102.768 15.599 103.398 16.0312 104.508 16.0312C105.055 16.0312 105.487 15.9245 105.805 15.7109C106.128 15.4922 106.289 15.1979 106.289 14.8281C106.289 14.5365 106.193 14.3047 106 14.1328C105.812 13.9609 105.492 13.8151 105.039 13.6953L103.609 13.3281C102.188 12.9635 101.477 12.2266 101.477 11.1172ZM112.438 17.1406C111.302 17.1406 110.391 16.763 109.703 16.0078C109.016 15.2474 108.672 14.224 108.672 12.9375C108.672 11.651 109.016 10.6302 109.703 9.875C110.391 9.11458 111.302 8.73438 112.438 8.73438C113.568 8.73438 114.477 9.11458 115.164 9.875C115.852 10.6302 116.195 11.651 116.195 12.9375C116.195 14.2188 115.852 15.2396 115.164 16C114.477 16.7604 113.568 17.1406 112.438 17.1406ZM110.695 15.1484C111.128 15.6797 111.708 15.9453 112.438 15.9453C113.167 15.9453 113.745 15.6823 114.172 15.1562C114.599 14.625 114.812 13.8854 114.812 12.9375C114.812 11.9896 114.599 11.2526 114.172 10.7266C113.745 10.1953 113.167 9.92969 112.438 9.92969C111.708 9.92969 111.128 10.1953 110.695 10.7266C110.268 11.2578 110.055 11.9948 110.055 12.9375C110.055 13.8802 110.268 14.6172 110.695 15.1484ZM117.57 17V8.875H118.852V10.1719H118.883C119.081 9.72917 119.38 9.38021 119.781 9.125C120.182 8.86458 120.651 8.73438 121.188 8.73438C121.74 8.73438 122.214 8.86979 122.609 9.14062C123.005 9.40625 123.292 9.78646 123.469 10.2812H123.5C123.724 9.79688 124.06 9.41927 124.508 9.14844C124.961 8.8724 125.474 8.73438 126.047 8.73438C126.849 8.73438 127.49 8.97656 127.969 9.46094C128.453 9.9401 128.695 10.5833 128.695 11.3906V17H127.336V11.7031C127.336 11.1458 127.188 10.7135 126.891 10.4062C126.599 10.0938 126.185 9.9375 125.648 9.9375C125.112 9.9375 124.672 10.1172 124.328 10.4766C123.984 10.8307 123.812 11.2839 123.812 11.8359V17H122.453V11.5547C122.453 11.0651 122.302 10.6745 122 10.3828C121.698 10.0859 121.294 9.9375 120.789 9.9375C120.253 9.9375 119.807 10.125 119.453 10.5C119.104 10.875 118.93 11.3438 118.93 11.9062V17H117.57ZM133.688 9.91406C133.057 9.91406 132.534 10.1328 132.117 10.5703C131.706 11.0026 131.479 11.5599 131.438 12.2422H135.852C135.836 11.5547 135.63 10.9948 135.234 10.5625C134.839 10.1302 134.323 9.91406 133.688 9.91406ZM135.82 14.6719H137.156C137.036 15.3906 136.661 15.9818 136.031 16.4453C135.406 16.9089 134.654 17.1406 133.773 17.1406C132.612 17.1406 131.698 16.7656 131.031 16.0156C130.365 15.2656 130.031 14.25 130.031 12.9688C130.031 11.6979 130.365 10.6745 131.031 9.89844C131.703 9.1224 132.596 8.73438 133.711 8.73438C134.805 8.73438 135.669 9.10156 136.305 9.83594C136.94 10.5703 137.258 11.5547 137.258 12.7891V13.3047H131.43V13.3828C131.43 14.1641 131.643 14.7891 132.07 15.2578C132.497 15.7266 133.076 15.9609 133.805 15.9609C134.315 15.9609 134.75 15.8438 135.109 15.6094C135.469 15.375 135.706 15.0625 135.82 14.6719ZM139.07 6.91406H140.43V8.875H142.008V9.99219H140.43V14.8203C140.43 15.1901 140.51 15.4635 140.672 15.6406C140.833 15.8125 141.089 15.8984 141.438 15.8984C141.656 15.8984 141.844 15.8854 142 15.8594V17C141.823 17.0417 141.536 17.0625 141.141 17.0625C140.396 17.0625 139.865 16.8958 139.547 16.5625C139.229 16.2292 139.07 15.6719 139.07 14.8906V9.99219H137.859V8.875H139.07V6.91406ZM143.531 17V5.72656H144.891V10.1719H144.922C145.151 9.71354 145.484 9.35938 145.922 9.10938C146.365 8.85938 146.891 8.73438 147.5 8.73438C148.385 8.73438 149.083 9.00781 149.594 9.55469C150.104 10.1016 150.359 10.8333 150.359 11.75V17H149V12C149 11.3438 148.836 10.8359 148.508 10.4766C148.185 10.1172 147.708 9.9375 147.078 9.9375C146.406 9.9375 145.872 10.1484 145.477 10.5703C145.086 10.9922 144.891 11.5573 144.891 12.2656V17H143.531ZM152.156 17V8.875H153.516V17H152.156ZM152.836 7.50781C152.607 7.50781 152.409 7.42448 152.242 7.25781C152.076 7.09115 151.992 6.89323 151.992 6.66406C151.992 6.42969 152.076 6.23177 152.242 6.07031C152.409 5.90365 152.607 5.82031 152.836 5.82031C153.07 5.82031 153.271 5.90365 153.438 6.07031C153.604 6.23177 153.688 6.42969 153.688 6.66406C153.688 6.89323 153.604 7.09115 153.438 7.25781C153.271 7.42448 153.07 7.50781 152.836 7.50781ZM155.352 17V8.875H156.633V10.1719H156.664C156.898 9.71875 157.234 9.36719 157.672 9.11719C158.109 8.86198 158.633 8.73438 159.242 8.73438C160.128 8.73438 160.818 9.0026 161.312 9.53906C161.807 10.0703 162.055 10.7995 162.055 11.7266V17H160.695V11.9688C160.695 11.3073 160.539 10.8047 160.227 10.4609C159.914 10.112 159.448 9.9375 158.828 9.9375C158.188 9.9375 157.674 10.1458 157.289 10.5625C156.904 10.9792 156.711 11.5312 156.711 12.2188V17H155.352ZM167.094 15.8672C167.802 15.8672 168.372 15.5964 168.805 15.0547C169.237 14.513 169.453 13.7969 169.453 12.9062C169.453 12.0104 169.237 11.2917 168.805 10.75C168.372 10.2031 167.802 9.92969 167.094 9.92969C166.391 9.92969 165.828 10.2005 165.406 10.7422C164.99 11.2786 164.781 12 164.781 12.9062C164.781 13.8125 164.99 14.5339 165.406 15.0703C165.828 15.6016 166.391 15.8672 167.094 15.8672ZM167.141 20.0625C166.25 20.0625 165.484 19.8359 164.844 19.3828C164.203 18.9349 163.826 18.3646 163.711 17.6719H165.109C165.245 18.0469 165.5 18.3464 165.875 18.5703C166.25 18.7943 166.69 18.9062 167.195 18.9062C167.893 18.9062 168.443 18.7214 168.844 18.3516C169.25 17.9818 169.453 17.4922 169.453 16.8828V15.6016H169.422C169.167 16.0495 168.81 16.4062 168.352 16.6719C167.893 16.9323 167.383 17.0625 166.82 17.0625C165.784 17.0625 164.953 16.6849 164.328 15.9297C163.703 15.1745 163.391 14.1667 163.391 12.9062C163.391 11.6354 163.703 10.6224 164.328 9.86719C164.958 9.11198 165.799 8.73438 166.852 8.73438C167.424 8.73438 167.94 8.86719 168.398 9.13281C168.857 9.39844 169.221 9.76823 169.492 10.2422H169.516V8.875H170.812V16.8359C170.812 17.8099 170.479 18.5911 169.812 19.1797C169.146 19.7682 168.255 20.0625 167.141 20.0625ZM186.203 8.875L183.938 17H182.555L180.719 10.7109H180.688L178.859 17H177.477L175.203 8.875H176.555L178.18 15.4844H178.211L180.047 8.875H181.359L183.203 15.4844H183.234L184.859 8.875H186.203ZM189.844 15.9844C190.484 15.9844 191.021 15.7865 191.453 15.3906C191.891 14.9896 192.109 14.4974 192.109 13.9141V13.25L189.938 13.3828C189.391 13.4193 188.966 13.5521 188.664 13.7812C188.367 14.0104 188.219 14.3177 188.219 14.7031C188.219 15.0885 188.367 15.3984 188.664 15.6328C188.961 15.8672 189.354 15.9844 189.844 15.9844ZM189.539 17.1406C188.732 17.1406 188.078 16.9167 187.578 16.4688C187.083 16.0208 186.836 15.4323 186.836 14.7031C186.836 14.0052 187.091 13.4479 187.602 13.0312C188.117 12.6146 188.844 12.3802 189.781 12.3281L192.109 12.1953V11.5156C192.109 11.0208 191.953 10.6328 191.641 10.3516C191.328 10.0703 190.891 9.92969 190.328 9.92969C189.812 9.92969 189.393 10.0443 189.07 10.2734C188.747 10.4974 188.542 10.8125 188.453 11.2188H187.141C187.188 10.4948 187.5 9.90104 188.078 9.4375C188.661 8.96875 189.422 8.73438 190.359 8.73438C191.312 8.73438 192.068 8.97396 192.625 9.45312C193.188 9.93229 193.469 10.5755 193.469 11.3828V17H192.18V15.6016H192.148C191.904 16.0651 191.544 16.4375 191.07 16.7188C190.596 17 190.086 17.1406 189.539 17.1406ZM195.055 11.1172C195.055 10.4193 195.336 9.84896 195.898 9.40625C196.466 8.95833 197.195 8.73438 198.086 8.73438C198.924 8.73438 199.622 8.95833 200.18 9.40625C200.737 9.85417 201.031 10.4219 201.062 11.1094H199.766C199.719 10.7135 199.542 10.4036 199.234 10.1797C198.932 9.95573 198.534 9.84375 198.039 9.84375C197.544 9.84375 197.146 9.95573 196.844 10.1797C196.542 10.3984 196.391 10.6875 196.391 11.0469C196.391 11.599 196.841 11.9896 197.742 12.2188L199 12.5234C199.818 12.7318 200.393 13.0026 200.727 13.3359C201.065 13.6641 201.234 14.1276 201.234 14.7266C201.234 15.4349 200.932 16.0156 200.328 16.4688C199.724 16.9167 198.948 17.1406 198 17.1406C197.115 17.1406 196.383 16.9219 195.805 16.4844C195.232 16.0417 194.909 15.4583 194.836 14.7344H196.195C196.346 15.599 196.977 16.0312 198.086 16.0312C198.633 16.0312 199.065 15.9245 199.383 15.7109C199.706 15.4922 199.867 15.1979 199.867 14.8281C199.867 14.5365 199.771 14.3047 199.578 14.1328C199.391 13.9609 199.07 13.8151 198.617 13.6953L197.188 13.3281C195.766 12.9635 195.055 12.2266 195.055 11.1172ZM202.648 17V8.875H203.93V10.1719H203.961C204.195 9.71875 204.531 9.36719 204.969 9.11719C205.406 8.86198 205.93 8.73438 206.539 8.73438C207.424 8.73438 208.115 9.0026 208.609 9.53906C209.104 10.0703 209.352 10.7995 209.352 11.7266V17H207.992V11.9688C207.992 11.3073 207.836 10.8047 207.523 10.4609C207.211 10.112 206.745 9.9375 206.125 9.9375C205.484 9.9375 204.971 10.1458 204.586 10.5625C204.201 10.9792 204.008 11.5312 204.008 12.2188V17H202.648ZM211.633 9.70312H210.5L211.258 5.72656H212.703L211.633 9.70312ZM215.023 6.91406H216.383V8.875H217.961V9.99219H216.383V14.8203C216.383 15.1901 216.464 15.4635 216.625 15.6406C216.786 15.8125 217.042 15.8984 217.391 15.8984C217.609 15.8984 217.797 15.8854 217.953 15.8594V17C217.776 17.0417 217.49 17.0625 217.094 17.0625C216.349 17.0625 215.818 16.8958 215.5 16.5625C215.182 16.2292 215.023 15.6719 215.023 14.8906V9.99219H213.812V8.875H215.023V6.91406ZM229.445 11.5391H228.117C228.013 11.0703 227.781 10.6849 227.422 10.3828C227.068 10.0807 226.607 9.92969 226.039 9.92969C225.331 9.92969 224.76 10.2031 224.328 10.75C223.896 11.2917 223.68 12.0208 223.68 12.9375C223.68 13.8698 223.896 14.6042 224.328 15.1406C224.766 15.6771 225.341 15.9453 226.055 15.9453C226.602 15.9453 227.052 15.8099 227.406 15.5391C227.766 15.263 228.005 14.8776 228.125 14.3828H229.461C229.357 15.1953 228.99 15.8594 228.359 16.375C227.734 16.8854 226.964 17.1406 226.047 17.1406C224.911 17.1406 224.003 16.7656 223.32 16.0156C222.638 15.2604 222.297 14.2344 222.297 12.9375C222.297 11.6615 222.638 10.6432 223.32 9.88281C224.003 9.11719 224.906 8.73438 226.031 8.73438C227 8.73438 227.786 9.00781 228.391 9.55469C229 10.1016 229.352 10.763 229.445 11.5391ZM234.078 17.1406C232.943 17.1406 232.031 16.763 231.344 16.0078C230.656 15.2474 230.312 14.224 230.312 12.9375C230.312 11.651 230.656 10.6302 231.344 9.875C232.031 9.11458 232.943 8.73438 234.078 8.73438C235.208 8.73438 236.117 9.11458 236.805 9.875C237.492 10.6302 237.836 11.651 237.836 12.9375C237.836 14.2188 237.492 15.2396 236.805 16C236.117 16.7604 235.208 17.1406 234.078 17.1406ZM232.336 15.1484C232.768 15.6797 233.349 15.9453 234.078 15.9453C234.807 15.9453 235.385 15.6823 235.812 15.1562C236.24 14.625 236.453 13.8854 236.453 12.9375C236.453 11.9896 236.24 11.2526 235.812 10.7266C235.385 10.1953 234.807 9.92969 234.078 9.92969C233.349 9.92969 232.768 10.1953 232.336 10.7266C231.909 11.2578 231.695 11.9948 231.695 12.9375C231.695 13.8802 231.909 14.6172 232.336 15.1484ZM239.211 17V8.875H240.492V10.2031H240.523C240.659 9.75 240.901 9.39323 241.25 9.13281C241.604 8.86719 242.018 8.73438 242.492 8.73438C242.602 8.73438 242.784 8.7526 243.039 8.78906V10.1094C242.893 10.0573 242.651 10.0312 242.312 10.0312C241.786 10.0312 241.365 10.2057 241.047 10.5547C240.729 10.9036 240.57 11.3646 240.57 11.9375V17H239.211ZM244.148 17V8.875H245.43V10.2031H245.461C245.596 9.75 245.839 9.39323 246.188 9.13281C246.542 8.86719 246.956 8.73438 247.43 8.73438C247.539 8.73438 247.721 8.7526 247.977 8.78906V10.1094C247.831 10.0573 247.589 10.0312 247.25 10.0312C246.724 10.0312 246.302 10.2057 245.984 10.5547C245.667 10.9036 245.508 11.3646 245.508 11.9375V17H244.148ZM251.953 9.91406C251.323 9.91406 250.799 10.1328 250.383 10.5703C249.971 11.0026 249.745 11.5599 249.703 12.2422H254.117C254.102 11.5547 253.896 10.9948 253.5 10.5625C253.104 10.1302 252.589 9.91406 251.953 9.91406ZM254.086 14.6719H255.422C255.302 15.3906 254.927 15.9818 254.297 16.4453C253.672 16.9089 252.919 17.1406 252.039 17.1406C250.878 17.1406 249.964 16.7656 249.297 16.0156C248.63 15.2656 248.297 14.25 248.297 12.9688C248.297 11.6979 248.63 10.6745 249.297 9.89844C249.969 9.1224 250.862 8.73438 251.977 8.73438C253.07 8.73438 253.935 9.10156 254.57 9.83594C255.206 10.5703 255.523 11.5547 255.523 12.7891V13.3047H249.695V13.3828C249.695 14.1641 249.909 14.7891 250.336 15.2578C250.763 15.7266 251.341 15.9609 252.07 15.9609C252.581 15.9609 253.016 15.8438 253.375 15.6094C253.734 15.375 253.971 15.0625 254.086 14.6719ZM263.648 11.5391H262.32C262.216 11.0703 261.984 10.6849 261.625 10.3828C261.271 10.0807 260.81 9.92969 260.242 9.92969C259.534 9.92969 258.964 10.2031 258.531 10.75C258.099 11.2917 257.883 12.0208 257.883 12.9375C257.883 13.8698 258.099 14.6042 258.531 15.1406C258.969 15.6771 259.544 15.9453 260.258 15.9453C260.805 15.9453 261.255 15.8099 261.609 15.5391C261.969 15.263 262.208 14.8776 262.328 14.3828H263.664C263.56 15.1953 263.193 15.8594 262.562 16.375C261.938 16.8854 261.167 17.1406 260.25 17.1406C259.115 17.1406 258.206 16.7656 257.523 16.0156C256.841 15.2604 256.5 14.2344 256.5 12.9375C256.5 11.6615 256.841 10.6432 257.523 9.88281C258.206 9.11719 259.109 8.73438 260.234 8.73438C261.203 8.73438 261.99 9.00781 262.594 9.55469C263.203 10.1016 263.555 10.763 263.648 11.5391ZM265.352 6.91406H266.711V8.875H268.289V9.99219H266.711V14.8203C266.711 15.1901 266.792 15.4635 266.953 15.6406C267.115 15.8125 267.37 15.8984 267.719 15.8984C267.938 15.8984 268.125 15.8854 268.281 15.8594V17C268.104 17.0417 267.818 17.0625 267.422 17.0625C266.677 17.0625 266.146 16.8958 265.828 16.5625C265.51 16.2292 265.352 15.6719 265.352 14.8906V9.99219H264.141V8.875H265.352V6.91406ZM271.523 16.8203C271.352 16.9922 271.141 17.0781 270.891 17.0781C270.641 17.0781 270.43 16.9922 270.258 16.8203C270.086 16.6484 270 16.4375 270 16.1875C270 15.9375 270.086 15.7266 270.258 15.5547C270.43 15.3828 270.641 15.2969 270.891 15.2969C271.141 15.2969 271.352 15.3828 271.523 15.5547C271.695 15.7266 271.781 15.9375 271.781 16.1875C271.781 16.4375 271.695 16.6484 271.523 16.8203ZM276.516 5.72656H280.539C281.596 5.72656 282.461 6.0651 283.133 6.74219C283.81 7.41406 284.148 8.28125 284.148 9.34375C284.148 10.4115 283.81 11.2839 283.133 11.9609C282.456 12.638 281.586 12.9766 280.523 12.9766H277.922V17H276.516V5.72656ZM277.922 6.97656V11.7266H280.172C280.974 11.7266 281.596 11.5182 282.039 11.1016C282.482 10.6797 282.703 10.0938 282.703 9.34375C282.703 8.59375 282.482 8.01302 282.039 7.60156C281.602 7.1849 280.979 6.97656 280.172 6.97656H277.922ZM285.625 17V5.72656H286.984V17H285.625ZM292.078 9.91406C291.448 9.91406 290.924 10.1328 290.508 10.5703C290.096 11.0026 289.87 11.5599 289.828 12.2422H294.242C294.227 11.5547 294.021 10.9948 293.625 10.5625C293.229 10.1302 292.714 9.91406 292.078 9.91406ZM294.211 14.6719H295.547C295.427 15.3906 295.052 15.9818 294.422 16.4453C293.797 16.9089 293.044 17.1406 292.164 17.1406C291.003 17.1406 290.089 16.7656 289.422 16.0156C288.755 15.2656 288.422 14.25 288.422 12.9688C288.422 11.6979 288.755 10.6745 289.422 9.89844C290.094 9.1224 290.987 8.73438 292.102 8.73438C293.195 8.73438 294.06 9.10156 294.695 9.83594C295.331 10.5703 295.648 11.5547 295.648 12.7891V13.3047H289.82V13.3828C289.82 14.1641 290.034 14.7891 290.461 15.2578C290.888 15.7266 291.466 15.9609 292.195 15.9609C292.706 15.9609 293.141 15.8438 293.5 15.6094C293.859 15.375 294.096 15.0625 294.211 14.6719ZM299.703 15.9844C300.344 15.9844 300.88 15.7865 301.312 15.3906C301.75 14.9896 301.969 14.4974 301.969 13.9141V13.25L299.797 13.3828C299.25 13.4193 298.826 13.5521 298.523 13.7812C298.227 14.0104 298.078 14.3177 298.078 14.7031C298.078 15.0885 298.227 15.3984 298.523 15.6328C298.82 15.8672 299.214 15.9844 299.703 15.9844ZM299.398 17.1406C298.591 17.1406 297.938 16.9167 297.438 16.4688C296.943 16.0208 296.695 15.4323 296.695 14.7031C296.695 14.0052 296.951 13.4479 297.461 13.0312C297.977 12.6146 298.703 12.3802 299.641 12.3281L301.969 12.1953V11.5156C301.969 11.0208 301.812 10.6328 301.5 10.3516C301.188 10.0703 300.75 9.92969 300.188 9.92969C299.672 9.92969 299.253 10.0443 298.93 10.2734C298.607 10.4974 298.401 10.8125 298.312 11.2188H297C297.047 10.4948 297.359 9.90104 297.938 9.4375C298.521 8.96875 299.281 8.73438 300.219 8.73438C301.172 8.73438 301.927 8.97396 302.484 9.45312C303.047 9.93229 303.328 10.5755 303.328 11.3828V17H302.039V15.6016H302.008C301.763 16.0651 301.404 16.4375 300.93 16.7188C300.456 17 299.945 17.1406 299.398 17.1406ZM304.914 11.1172C304.914 10.4193 305.195 9.84896 305.758 9.40625C306.326 8.95833 307.055 8.73438 307.945 8.73438C308.784 8.73438 309.482 8.95833 310.039 9.40625C310.596 9.85417 310.891 10.4219 310.922 11.1094H309.625C309.578 10.7135 309.401 10.4036 309.094 10.1797C308.792 9.95573 308.393 9.84375 307.898 9.84375C307.404 9.84375 307.005 9.95573 306.703 10.1797C306.401 10.3984 306.25 10.6875 306.25 11.0469C306.25 11.599 306.701 11.9896 307.602 12.2188L308.859 12.5234C309.677 12.7318 310.253 13.0026 310.586 13.3359C310.924 13.6641 311.094 14.1276 311.094 14.7266C311.094 15.4349 310.792 16.0156 310.188 16.4688C309.583 16.9167 308.807 17.1406 307.859 17.1406C306.974 17.1406 306.242 16.9219 305.664 16.4844C305.091 16.0417 304.768 15.4583 304.695 14.7344H306.055C306.206 15.599 306.836 16.0312 307.945 16.0312C308.492 16.0312 308.924 15.9245 309.242 15.7109C309.565 15.4922 309.727 15.1979 309.727 14.8281C309.727 14.5365 309.63 14.3047 309.438 14.1328C309.25 13.9609 308.93 13.8151 308.477 13.6953L307.047 13.3281C305.625 12.9635 304.914 12.2266 304.914 11.1172ZM315.766 9.91406C315.135 9.91406 314.612 10.1328 314.195 10.5703C313.784 11.0026 313.557 11.5599 313.516 12.2422H317.93C317.914 11.5547 317.708 10.9948 317.312 10.5625C316.917 10.1302 316.401 9.91406 315.766 9.91406ZM317.898 14.6719H319.234C319.115 15.3906 318.74 15.9818 318.109 16.4453C317.484 16.9089 316.732 17.1406 315.852 17.1406C314.69 17.1406 313.776 16.7656 313.109 16.0156C312.443 15.2656 312.109 14.25 312.109 12.9688C312.109 11.6979 312.443 10.6745 313.109 9.89844C313.781 9.1224 314.674 8.73438 315.789 8.73438C316.883 8.73438 317.747 9.10156 318.383 9.83594C319.018 10.5703 319.336 11.5547 319.336 12.7891V13.3047H313.508V13.3828C313.508 14.1641 313.721 14.7891 314.148 15.2578C314.576 15.7266 315.154 15.9609 315.883 15.9609C316.393 15.9609 316.828 15.8438 317.188 15.6094C317.547 15.375 317.784 15.0625 317.898 14.6719ZM327.25 9.91406C326.62 9.91406 326.096 10.1328 325.68 10.5703C325.268 11.0026 325.042 11.5599 325 12.2422H329.414C329.398 11.5547 329.193 10.9948 328.797 10.5625C328.401 10.1302 327.885 9.91406 327.25 9.91406ZM329.383 14.6719H330.719C330.599 15.3906 330.224 15.9818 329.594 16.4453C328.969 16.9089 328.216 17.1406 327.336 17.1406C326.174 17.1406 325.26 16.7656 324.594 16.0156C323.927 15.2656 323.594 14.25 323.594 12.9688C323.594 11.6979 323.927 10.6745 324.594 9.89844C325.266 9.1224 326.159 8.73438 327.273 8.73438C328.367 8.73438 329.232 9.10156 329.867 9.83594C330.503 10.5703 330.82 11.5547 330.82 12.7891V13.3047H324.992V13.3828C324.992 14.1641 325.206 14.7891 325.633 15.2578C326.06 15.7266 326.638 15.9609 327.367 15.9609C327.878 15.9609 328.312 15.8438 328.672 15.6094C329.031 15.375 329.268 15.0625 329.383 14.6719ZM332.195 17V8.875H333.477V10.1719H333.508C333.742 9.71875 334.078 9.36719 334.516 9.11719C334.953 8.86198 335.477 8.73438 336.086 8.73438C336.971 8.73438 337.661 9.0026 338.156 9.53906C338.651 10.0703 338.898 10.7995 338.898 11.7266V17H337.539V11.9688C337.539 11.3073 337.383 10.8047 337.07 10.4609C336.758 10.112 336.292 9.9375 335.672 9.9375C335.031 9.9375 334.518 10.1458 334.133 10.5625C333.747 10.9792 333.555 11.5312 333.555 12.2188V17H332.195ZM341.07 6.91406H342.43V8.875H344.008V9.99219H342.43V14.8203C342.43 15.1901 342.51 15.4635 342.672 15.6406C342.833 15.8125 343.089 15.8984 343.438 15.8984C343.656 15.8984 343.844 15.8854 344 15.8594V17C343.823 17.0417 343.536 17.0625 343.141 17.0625C342.396 17.0625 341.865 16.8958 341.547 16.5625C341.229 16.2292 341.07 15.6719 341.07 14.8906V9.99219H339.859V8.875H341.07V6.91406ZM348.484 9.91406C347.854 9.91406 347.331 10.1328 346.914 10.5703C346.503 11.0026 346.276 11.5599 346.234 12.2422H350.648C350.633 11.5547 350.427 10.9948 350.031 10.5625C349.635 10.1302 349.12 9.91406 348.484 9.91406ZM350.617 14.6719H351.953C351.833 15.3906 351.458 15.9818 350.828 16.4453C350.203 16.9089 349.451 17.1406 348.57 17.1406C347.409 17.1406 346.495 16.7656 345.828 16.0156C345.161 15.2656 344.828 14.25 344.828 12.9688C344.828 11.6979 345.161 10.6745 345.828 9.89844C346.5 9.1224 347.393 8.73438 348.508 8.73438C349.602 8.73438 350.466 9.10156 351.102 9.83594C351.737 10.5703 352.055 11.5547 352.055 12.7891V13.3047H346.227V13.3828C346.227 14.1641 346.44 14.7891 346.867 15.2578C347.294 15.7266 347.872 15.9609 348.602 15.9609C349.112 15.9609 349.547 15.8438 349.906 15.6094C350.266 15.375 350.503 15.0625 350.617 14.6719ZM353.43 17V8.875H354.711V10.2031H354.742C354.878 9.75 355.12 9.39323 355.469 9.13281C355.823 8.86719 356.237 8.73438 356.711 8.73438C356.82 8.73438 357.003 8.7526 357.258 8.78906V10.1094C357.112 10.0573 356.87 10.0312 356.531 10.0312C356.005 10.0312 355.583 10.2057 355.266 10.5547C354.948 10.9036 354.789 11.3646 354.789 11.9375V17H353.43ZM362.086 6.91406H363.445V8.875H365.023V9.99219H363.445V14.8203C363.445 15.1901 363.526 15.4635 363.688 15.6406C363.849 15.8125 364.104 15.8984 364.453 15.8984C364.672 15.8984 364.859 15.8854 365.016 15.8594V17C364.839 17.0417 364.552 17.0625 364.156 17.0625C363.411 17.0625 362.88 16.8958 362.562 16.5625C362.245 16.2292 362.086 15.6719 362.086 14.8906V9.99219H360.875V8.875H362.086V6.91406ZM366.547 17V5.72656H367.906V10.1719H367.938C368.167 9.71354 368.5 9.35938 368.938 9.10938C369.38 8.85938 369.906 8.73438 370.516 8.73438C371.401 8.73438 372.099 9.00781 372.609 9.55469C373.12 10.1016 373.375 10.8333 373.375 11.75V17H372.016V12C372.016 11.3438 371.852 10.8359 371.523 10.4766C371.201 10.1172 370.724 9.9375 370.094 9.9375C369.422 9.9375 368.888 10.1484 368.492 10.5703C368.102 10.9922 367.906 11.5573 367.906 12.2656V17H366.547ZM378.359 9.91406C377.729 9.91406 377.206 10.1328 376.789 10.5703C376.378 11.0026 376.151 11.5599 376.109 12.2422H380.523C380.508 11.5547 380.302 10.9948 379.906 10.5625C379.51 10.1302 378.995 9.91406 378.359 9.91406ZM380.492 14.6719H381.828C381.708 15.3906 381.333 15.9818 380.703 16.4453C380.078 16.9089 379.326 17.1406 378.445 17.1406C377.284 17.1406 376.37 16.7656 375.703 16.0156C375.036 15.2656 374.703 14.25 374.703 12.9688C374.703 11.6979 375.036 10.6745 375.703 9.89844C376.375 9.1224 377.268 8.73438 378.383 8.73438C379.477 8.73438 380.341 9.10156 380.977 9.83594C381.612 10.5703 381.93 11.5547 381.93 12.7891V13.3047H376.102V13.3828C376.102 14.1641 376.315 14.7891 376.742 15.2578C377.169 15.7266 377.747 15.9609 378.477 15.9609C378.987 15.9609 379.422 15.8438 379.781 15.6094C380.141 15.375 380.378 15.0625 380.492 14.6719ZM390.531 8.73438C391.573 8.73438 392.411 9.11719 393.047 9.88281C393.688 10.6484 394.008 11.6667 394.008 12.9375C394.008 14.2031 393.69 15.2214 393.055 15.9922C392.419 16.7578 391.589 17.1406 390.562 17.1406C389.99 17.1406 389.477 17.0104 389.023 16.75C388.57 16.4896 388.221 16.1328 387.977 15.6797H387.945V19.7109H386.586V8.875H387.875V10.25H387.906C388.161 9.78125 388.518 9.41146 388.977 9.14062C389.435 8.86979 389.953 8.73438 390.531 8.73438ZM390.266 15.9453C390.99 15.9453 391.562 15.6745 391.984 15.1328C392.406 14.5911 392.617 13.8594 392.617 12.9375C392.617 12.0156 392.406 11.2839 391.984 10.7422C391.562 10.2005 390.99 9.92969 390.266 9.92969C389.568 9.92969 389.005 10.2057 388.578 10.7578C388.151 11.3099 387.938 12.0365 387.938 12.9375C387.938 13.8438 388.151 14.5729 388.578 15.125C389.005 15.6719 389.568 15.9453 390.266 15.9453ZM398.062 15.9844C398.703 15.9844 399.24 15.7865 399.672 15.3906C400.109 14.9896 400.328 14.4974 400.328 13.9141V13.25L398.156 13.3828C397.609 13.4193 397.185 13.5521 396.883 13.7812C396.586 14.0104 396.438 14.3177 396.438 14.7031C396.438 15.0885 396.586 15.3984 396.883 15.6328C397.18 15.8672 397.573 15.9844 398.062 15.9844ZM397.758 17.1406C396.951 17.1406 396.297 16.9167 395.797 16.4688C395.302 16.0208 395.055 15.4323 395.055 14.7031C395.055 14.0052 395.31 13.4479 395.82 13.0312C396.336 12.6146 397.062 12.3802 398 12.3281L400.328 12.1953V11.5156C400.328 11.0208 400.172 10.6328 399.859 10.3516C399.547 10.0703 399.109 9.92969 398.547 9.92969C398.031 9.92969 397.612 10.0443 397.289 10.2734C396.966 10.4974 396.76 10.8125 396.672 11.2188H395.359C395.406 10.4948 395.719 9.90104 396.297 9.4375C396.88 8.96875 397.641 8.73438 398.578 8.73438C399.531 8.73438 400.286 8.97396 400.844 9.45312C401.406 9.93229 401.688 10.5755 401.688 11.3828V17H400.398V15.6016H400.367C400.122 16.0651 399.763 16.4375 399.289 16.7188C398.815 17 398.305 17.1406 397.758 17.1406ZM404.086 20.0391C403.846 20.0391 403.651 20.0234 403.5 19.9922V18.8516C403.625 18.8776 403.802 18.8906 404.031 18.8906C404.411 18.8906 404.716 18.7891 404.945 18.5859C405.174 18.388 405.367 18.0521 405.523 17.5781L405.711 17.0078L402.711 8.875H404.164L406.414 15.6406H406.438L408.688 8.875H410.117L406.922 17.5703C406.573 18.5182 406.195 19.1667 405.789 19.5156C405.388 19.8646 404.82 20.0391 404.086 20.0391ZM411.195 17V8.875H412.477V10.1719H412.508C412.706 9.72917 413.005 9.38021 413.406 9.125C413.807 8.86458 414.276 8.73438 414.812 8.73438C415.365 8.73438 415.839 8.86979 416.234 9.14062C416.63 9.40625 416.917 9.78646 417.094 10.2812H417.125C417.349 9.79688 417.685 9.41927 418.133 9.14844C418.586 8.8724 419.099 8.73438 419.672 8.73438C420.474 8.73438 421.115 8.97656 421.594 9.46094C422.078 9.9401 422.32 10.5833 422.32 11.3906V17H420.961V11.7031C420.961 11.1458 420.812 10.7135 420.516 10.4062C420.224 10.0938 419.81 9.9375 419.273 9.9375C418.737 9.9375 418.297 10.1172 417.953 10.4766C417.609 10.8307 417.438 11.2839 417.438 11.8359V17H416.078V11.5547C416.078 11.0651 415.927 10.6745 415.625 10.3828C415.323 10.0859 414.919 9.9375 414.414 9.9375C413.878 9.9375 413.432 10.125 413.078 10.5C412.729 10.875 412.555 11.3438 412.555 11.9062V17H411.195ZM427.312 9.91406C426.682 9.91406 426.159 10.1328 425.742 10.5703C425.331 11.0026 425.104 11.5599 425.062 12.2422H429.477C429.461 11.5547 429.255 10.9948 428.859 10.5625C428.464 10.1302 427.948 9.91406 427.312 9.91406ZM429.445 14.6719H430.781C430.661 15.3906 430.286 15.9818 429.656 16.4453C429.031 16.9089 428.279 17.1406 427.398 17.1406C426.237 17.1406 425.323 16.7656 424.656 16.0156C423.99 15.2656 423.656 14.25 423.656 12.9688C423.656 11.6979 423.99 10.6745 424.656 9.89844C425.328 9.1224 426.221 8.73438 427.336 8.73438C428.43 8.73438 429.294 9.10156 429.93 9.83594C430.565 10.5703 430.883 11.5547 430.883 12.7891V13.3047H425.055V13.3828C425.055 14.1641 425.268 14.7891 425.695 15.2578C426.122 15.7266 426.701 15.9609 427.43 15.9609C427.94 15.9609 428.375 15.8438 428.734 15.6094C429.094 15.375 429.331 15.0625 429.445 14.6719ZM432.258 17V8.875H433.539V10.1719H433.57C433.805 9.71875 434.141 9.36719 434.578 9.11719C435.016 8.86198 435.539 8.73438 436.148 8.73438C437.034 8.73438 437.724 9.0026 438.219 9.53906C438.714 10.0703 438.961 10.7995 438.961 11.7266V17H437.602V11.9688C437.602 11.3073 437.445 10.8047 437.133 10.4609C436.82 10.112 436.354 9.9375 435.734 9.9375C435.094 9.9375 434.581 10.1458 434.195 10.5625C433.81 10.9792 433.617 11.5312 433.617 12.2188V17H432.258ZM441.133 6.91406H442.492V8.875H444.07V9.99219H442.492V14.8203C442.492 15.1901 442.573 15.4635 442.734 15.6406C442.896 15.8125 443.151 15.8984 443.5 15.8984C443.719 15.8984 443.906 15.8854 444.062 15.8594V17C443.885 17.0417 443.599 17.0625 443.203 17.0625C442.458 17.0625 441.927 16.8958 441.609 16.5625C441.292 16.2292 441.133 15.6719 441.133 14.8906V9.99219H439.922V8.875H441.133V6.91406ZM35.9609 39.1406C34.9193 39.1406 34.0781 38.7578 33.4375 37.9922C32.8021 37.2266 32.4844 36.2083 32.4844 34.9375C32.4844 33.6719 32.8021 32.6562 33.4375 31.8906C34.0729 31.1198 34.9036 30.7344 35.9297 30.7344C36.5026 30.7344 37.0156 30.8646 37.4688 31.125C37.9219 31.3854 38.2708 31.7422 38.5156 32.1953H38.5469V27.7266H39.9062V39H38.6094V37.625H38.5859C38.3203 38.099 37.9609 38.4714 37.5078 38.7422C37.0547 39.0078 36.5391 39.1406 35.9609 39.1406ZM36.2188 31.9297C35.5 31.9297 34.9297 32.2031 34.5078 32.75C34.0859 33.2917 33.875 34.0208 33.875 34.9375C33.875 35.8594 34.0859 36.5911 34.5078 37.1328C34.9297 37.6745 35.5 37.9453 36.2188 37.9453C36.9219 37.9453 37.487 37.6719 37.9141 37.125C38.3411 36.5729 38.5547 35.8438 38.5547 34.9375C38.5547 34.0312 38.3385 33.3047 37.9062 32.7578C37.4792 32.2057 36.9167 31.9297 36.2188 31.9297ZM45 31.9141C44.3698 31.9141 43.8464 32.1328 43.4297 32.5703C43.0182 33.0026 42.7917 33.5599 42.75 34.2422H47.1641C47.1484 33.5547 46.9427 32.9948 46.5469 32.5625C46.151 32.1302 45.6354 31.9141 45 31.9141ZM47.1328 36.6719H48.4688C48.349 37.3906 47.974 37.9818 47.3438 38.4453C46.7188 38.9089 45.9661 39.1406 45.0859 39.1406C43.9245 39.1406 43.0104 38.7656 42.3438 38.0156C41.6771 37.2656 41.3438 36.25 41.3438 34.9688C41.3438 33.6979 41.6771 32.6745 42.3438 31.8984C43.0156 31.1224 43.9089 30.7344 45.0234 30.7344C46.1172 30.7344 46.9818 31.1016 47.6172 31.8359C48.2526 32.5703 48.5703 33.5547 48.5703 34.7891V35.3047H42.7422V35.3828C42.7422 36.1641 42.9557 36.7891 43.3828 37.2578C43.8099 37.7266 44.388 37.9609 45.1172 37.9609C45.6276 37.9609 46.0625 37.8438 46.4219 37.6094C46.7812 37.375 47.0182 37.0625 47.1328 36.6719ZM50.3828 28.9141H51.7422V30.875H53.3203V31.9922H51.7422V36.8203C51.7422 37.1901 51.8229 37.4635 51.9844 37.6406C52.1458 37.8125 52.401 37.8984 52.75 37.8984C52.9688 37.8984 53.1562 37.8854 53.3125 37.8594V39C53.1354 39.0417 52.849 39.0625 52.4531 39.0625C51.7083 39.0625 51.1771 38.8958 50.8594 38.5625C50.5417 38.2292 50.3828 37.6719 50.3828 36.8906V31.9922H49.1719V30.875H50.3828V28.9141ZM57.2969 37.9844C57.9375 37.9844 58.474 37.7865 58.9062 37.3906C59.3438 36.9896 59.5625 36.4974 59.5625 35.9141V35.25L57.3906 35.3828C56.8438 35.4193 56.4193 35.5521 56.1172 35.7812C55.8203 36.0104 55.6719 36.3177 55.6719 36.7031C55.6719 37.0885 55.8203 37.3984 56.1172 37.6328C56.4141 37.8672 56.8073 37.9844 57.2969 37.9844ZM56.9922 39.1406C56.1849 39.1406 55.5312 38.9167 55.0312 38.4688C54.5365 38.0208 54.2891 37.4323 54.2891 36.7031C54.2891 36.0052 54.5443 35.4479 55.0547 35.0312C55.5703 34.6146 56.2969 34.3802 57.2344 34.3281L59.5625 34.1953V33.5156C59.5625 33.0208 59.4062 32.6328 59.0938 32.3516C58.7812 32.0703 58.3438 31.9297 57.7812 31.9297C57.2656 31.9297 56.8464 32.0443 56.5234 32.2734C56.2005 32.4974 55.9948 32.8125 55.9062 33.2188H54.5938C54.6406 32.4948 54.9531 31.901 55.5312 31.4375C56.1146 30.9688 56.875 30.7344 57.8125 30.7344C58.7656 30.7344 59.5208 30.974 60.0781 31.4531C60.6406 31.9323 60.9219 32.5755 60.9219 33.3828V39H59.6328V37.6016H59.6016C59.3568 38.0651 58.9974 38.4375 58.5234 38.7188C58.0495 39 57.5391 39.1406 56.9922 39.1406ZM62.7188 39V30.875H64.0781V39H62.7188ZM63.3984 29.5078C63.1693 29.5078 62.9714 29.4245 62.8047 29.2578C62.638 29.0911 62.5547 28.8932 62.5547 28.6641C62.5547 28.4297 62.638 28.2318 62.8047 28.0703C62.9714 27.9036 63.1693 27.8203 63.3984 27.8203C63.6328 27.8203 63.8333 27.9036 64 28.0703C64.1667 28.2318 64.25 28.4297 64.25 28.6641C64.25 28.8932 64.1667 29.0911 64 29.2578C63.8333 29.4245 63.6328 29.5078 63.3984 29.5078ZM65.9844 39V27.7266H67.3438V39H65.9844ZM69.0391 33.1172C69.0391 32.4193 69.3203 31.849 69.8828 31.4062C70.4505 30.9583 71.1797 30.7344 72.0703 30.7344C72.9089 30.7344 73.6068 30.9583 74.1641 31.4062C74.7214 31.8542 75.0156 32.4219 75.0469 33.1094H73.75C73.7031 32.7135 73.526 32.4036 73.2188 32.1797C72.9167 31.9557 72.5182 31.8438 72.0234 31.8438C71.5286 31.8438 71.1302 31.9557 70.8281 32.1797C70.526 32.3984 70.375 32.6875 70.375 33.0469C70.375 33.599 70.8255 33.9896 71.7266 34.2188L72.9844 34.5234C73.8021 34.7318 74.3776 35.0026 74.7109 35.3359C75.0495 35.6641 75.2188 36.1276 75.2188 36.7266C75.2188 37.4349 74.9167 38.0156 74.3125 38.4688C73.7083 38.9167 72.9323 39.1406 71.9844 39.1406C71.099 39.1406 70.3672 38.9219 69.7891 38.4844C69.2161 38.0417 68.8932 37.4583 68.8203 36.7344H70.1797C70.3307 37.599 70.9609 38.0312 72.0703 38.0312C72.6172 38.0312 73.0495 37.9245 73.3672 37.7109C73.6901 37.4922 73.8516 37.1979 73.8516 36.8281C73.8516 36.5365 73.7552 36.3047 73.5625 36.1328C73.375 35.9609 73.0547 35.8151 72.6016 35.6953L71.1719 35.3281C69.75 34.9635 69.0391 34.2266 69.0391 33.1172ZM82.5938 37.9844C83.2344 37.9844 83.7708 37.7865 84.2031 37.3906C84.6406 36.9896 84.8594 36.4974 84.8594 35.9141V35.25L82.6875 35.3828C82.1406 35.4193 81.7161 35.5521 81.4141 35.7812C81.1172 36.0104 80.9688 36.3177 80.9688 36.7031C80.9688 37.0885 81.1172 37.3984 81.4141 37.6328C81.7109 37.8672 82.1042 37.9844 82.5938 37.9844ZM82.2891 39.1406C81.4818 39.1406 80.8281 38.9167 80.3281 38.4688C79.8333 38.0208 79.5859 37.4323 79.5859 36.7031C79.5859 36.0052 79.8411 35.4479 80.3516 35.0312C80.8672 34.6146 81.5938 34.3802 82.5312 34.3281L84.8594 34.1953V33.5156C84.8594 33.0208 84.7031 32.6328 84.3906 32.3516C84.0781 32.0703 83.6406 31.9297 83.0781 31.9297C82.5625 31.9297 82.1432 32.0443 81.8203 32.2734C81.4974 32.4974 81.2917 32.8125 81.2031 33.2188H79.8906C79.9375 32.4948 80.25 31.901 80.8281 31.4375C81.4115 30.9688 82.1719 30.7344 83.1094 30.7344C84.0625 30.7344 84.8177 30.974 85.375 31.4531C85.9375 31.9323 86.2188 32.5755 86.2188 33.3828V39H84.9297V37.6016H84.8984C84.6536 38.0651 84.2943 38.4375 83.8203 38.7188C83.3464 39 82.8359 39.1406 82.2891 39.1406ZM91.25 37.8672C91.9583 37.8672 92.5286 37.5964 92.9609 37.0547C93.3932 36.513 93.6094 35.7969 93.6094 34.9062C93.6094 34.0104 93.3932 33.2917 92.9609 32.75C92.5286 32.2031 91.9583 31.9297 91.25 31.9297C90.5469 31.9297 89.9844 32.2005 89.5625 32.7422C89.1458 33.2786 88.9375 34 88.9375 34.9062C88.9375 35.8125 89.1458 36.5339 89.5625 37.0703C89.9844 37.6016 90.5469 37.8672 91.25 37.8672ZM91.2969 42.0625C90.4062 42.0625 89.6406 41.8359 89 41.3828C88.3594 40.9349 87.9818 40.3646 87.8672 39.6719H89.2656C89.401 40.0469 89.6562 40.3464 90.0312 40.5703C90.4062 40.7943 90.8464 40.9062 91.3516 40.9062C92.0495 40.9062 92.599 40.7214 93 40.3516C93.4062 39.9818 93.6094 39.4922 93.6094 38.8828V37.6016H93.5781C93.3229 38.0495 92.9661 38.4062 92.5078 38.6719C92.0495 38.9323 91.5391 39.0625 90.9766 39.0625C89.9401 39.0625 89.1094 38.6849 88.4844 37.9297C87.8594 37.1745 87.5469 36.1667 87.5469 34.9062C87.5469 33.6354 87.8594 32.6224 88.4844 31.8672C89.1146 31.112 89.9557 30.7344 91.0078 30.7344C91.5807 30.7344 92.0964 30.8672 92.5547 31.1328C93.013 31.3984 93.3776 31.7682 93.6484 32.2422H93.6719V30.875H94.9688V38.8359C94.9688 39.8099 94.6354 40.5911 93.9688 41.1797C93.3021 41.7682 92.4115 42.0625 91.2969 42.0625ZM99.4219 37.9844C100.062 37.9844 100.599 37.7865 101.031 37.3906C101.469 36.9896 101.688 36.4974 101.688 35.9141V35.25L99.5156 35.3828C98.9688 35.4193 98.5443 35.5521 98.2422 35.7812C97.9453 36.0104 97.7969 36.3177 97.7969 36.7031C97.7969 37.0885 97.9453 37.3984 98.2422 37.6328C98.5391 37.8672 98.9323 37.9844 99.4219 37.9844ZM99.1172 39.1406C98.3099 39.1406 97.6562 38.9167 97.1562 38.4688C96.6615 38.0208 96.4141 37.4323 96.4141 36.7031C96.4141 36.0052 96.6693 35.4479 97.1797 35.0312C97.6953 34.6146 98.4219 34.3802 99.3594 34.3281L101.688 34.1953V33.5156C101.688 33.0208 101.531 32.6328 101.219 32.3516C100.906 32.0703 100.469 31.9297 99.9062 31.9297C99.3906 31.9297 98.9714 32.0443 98.6484 32.2734C98.3255 32.4974 98.1198 32.8125 98.0312 33.2188H96.7188C96.7656 32.4948 97.0781 31.901 97.6562 31.4375C98.2396 30.9688 99 30.7344 99.9375 30.7344C100.891 30.7344 101.646 30.974 102.203 31.4531C102.766 31.9323 103.047 32.5755 103.047 33.3828V39H101.758V37.6016H101.727C101.482 38.0651 101.122 38.4375 100.648 38.7188C100.174 39 99.6641 39.1406 99.1172 39.1406ZM104.844 39V30.875H106.203V39H104.844ZM105.523 29.5078C105.294 29.5078 105.096 29.4245 104.93 29.2578C104.763 29.0911 104.68 28.8932 104.68 28.6641C104.68 28.4297 104.763 28.2318 104.93 28.0703C105.096 27.9036 105.294 27.8203 105.523 27.8203C105.758 27.8203 105.958 27.9036 106.125 28.0703C106.292 28.2318 106.375 28.4297 106.375 28.6641C106.375 28.8932 106.292 29.0911 106.125 29.2578C105.958 29.4245 105.758 29.5078 105.523 29.5078ZM108.039 39V30.875H109.32V32.1719H109.352C109.586 31.7188 109.922 31.3672 110.359 31.1172C110.797 30.862 111.32 30.7344 111.93 30.7344C112.815 30.7344 113.505 31.0026 114 31.5391C114.495 32.0703 114.742 32.7995 114.742 33.7266V39H113.383V33.9688C113.383 33.3073 113.227 32.8047 112.914 32.4609C112.602 32.112 112.135 31.9375 111.516 31.9375C110.875 31.9375 110.362 32.1458 109.977 32.5625C109.591 32.9792 109.398 33.5312 109.398 34.2188V39H108.039ZM118.258 38.8203C118.086 38.9922 117.875 39.0781 117.625 39.0781C117.375 39.0781 117.164 38.9922 116.992 38.8203C116.82 38.6484 116.734 38.4375 116.734 38.1875C116.734 37.9375 116.82 37.7266 116.992 37.5547C117.164 37.3828 117.375 37.2969 117.625 37.2969C117.875 37.2969 118.086 37.3828 118.258 37.5547C118.43 37.7266 118.516 37.9375 118.516 38.1875C118.516 38.4375 118.43 38.6484 118.258 38.8203Z" fill="#1C1C1C"/>
<path fill-rule="evenodd" clip-rule="evenodd" d="M6.11532 0.330444C6.3269 0.118864 6.61386 0 6.91308 0H15.0869C15.3861 0 15.6731 0.118864 15.8847 0.330444L21.6696 6.11532C21.8811 6.3269 22 6.61386 22 6.91308V15.0869C22 15.3861 21.8811 15.6731 21.6696 15.8847L15.8847 21.6696C15.6731 21.8811 15.3861 22 15.0869 22H6.91308C6.61386 22 6.3269 21.8811 6.11532 21.6696L0.330444 15.8847C0.118864 15.6731 0 15.3861 0 15.0869V6.91308C0 6.61386 0.118864 6.3269 0.330444 6.11532L6.11532 0.330444ZM7.38039 2.25641L2.25641 7.38039V14.6196L7.3804 19.7436H14.6196L19.7436 14.6196V7.3804L14.6196 2.25641H7.38039ZM11 5.92308C11.6231 5.92308 12.1282 6.42819 12.1282 7.05128V11C12.1282 11.6231 11.6231 12.1282 11 12.1282C10.3769 12.1282 9.8718 11.6231 9.8718 11V7.05128C9.8718 6.42819 10.3769 5.92308 11 5.92308ZM9.8718 14.9487C9.8718 14.3256 10.3769 13.8205 11 13.8205H11.0099C11.633 13.8205 12.1381 14.3256 12.1381 14.9487C12.1381 15.5718 11.633 16.0769 11.0099 16.0769H11C10.3769 16.0769 9.8718 15.5718 9.8718 14.9487Z" fill="#EB5454"/>
</svg>
