<svg width="431" height="124" viewBox="0 0 431 124" fill="none" xmlns="http://www.w3.org/2000/svg">
<g filter="url(#filter0_d_1381_138595)">
<rect x="31" y="14" width="380" height="84" rx="6" fill="white"/>
<path d="M20 41L31 29L31 53L20 41Z" fill="white"/>
</g>
<path d="M388.688 36.6318L376.688 48.6318M376.688 36.6318L388.688 48.6318" stroke="#1C1C1C" stroke-width="1.5" stroke-linecap="round" stroke-linejoin="round"/>
<path d="M55.6826 50H54.4521V41.2432H51.3418V40.1357H58.793V41.2432H55.6826V50ZM59.9688 50V40.1357H61.1582V44.0254H61.1855C61.3861 43.6243 61.6777 43.3145 62.0605 43.0957C62.4479 42.877 62.9082 42.7676 63.4414 42.7676C64.2161 42.7676 64.8268 43.0068 65.2734 43.4854C65.7201 43.9639 65.9434 44.6042 65.9434 45.4062V50H64.7539V45.625C64.7539 45.0508 64.6104 44.6064 64.3232 44.292C64.0407 43.9775 63.6237 43.8203 63.0723 43.8203C62.4844 43.8203 62.0173 44.0049 61.6709 44.374C61.3291 44.7432 61.1582 45.2376 61.1582 45.8574V50H59.9688ZM70.3047 43.7998C69.7533 43.7998 69.2952 43.9912 68.9307 44.374C68.5706 44.7523 68.3724 45.2399 68.3359 45.8369H72.1982C72.1846 45.2354 72.0046 44.7454 71.6582 44.3672C71.3118 43.9889 70.8607 43.7998 70.3047 43.7998ZM72.1709 47.9629H73.3398C73.235 48.5918 72.9069 49.109 72.3555 49.5146C71.8086 49.9202 71.1501 50.123 70.3799 50.123C69.3636 50.123 68.5638 49.7949 67.9805 49.1387C67.3971 48.4824 67.1055 47.5938 67.1055 46.4727C67.1055 45.3607 67.3971 44.4652 67.9805 43.7861C68.5684 43.1071 69.3499 42.7676 70.3252 42.7676C71.2822 42.7676 72.0387 43.0889 72.5947 43.7314C73.1507 44.374 73.4287 45.2354 73.4287 46.3154V46.7666H68.3291V46.835C68.3291 47.5186 68.516 48.0654 68.8896 48.4756C69.2633 48.8857 69.7692 49.0908 70.4072 49.0908C70.8538 49.0908 71.2344 48.9883 71.5488 48.7832C71.8633 48.5781 72.0706 48.3047 72.1709 47.9629ZM80.9551 42.7676C81.8665 42.7676 82.6003 43.1025 83.1562 43.7725C83.7168 44.4424 83.9971 45.3333 83.9971 46.4453C83.9971 47.5527 83.7191 48.4437 83.1631 49.1182C82.6071 49.7881 81.8802 50.123 80.9824 50.123C80.4811 50.123 80.0322 50.0091 79.6357 49.7812C79.2393 49.5534 78.9339 49.2412 78.7197 48.8447H78.6924V52.3721H77.5029V42.8906H78.6309V44.0938H78.6582C78.8815 43.6836 79.1937 43.36 79.5947 43.123C79.9958 42.8861 80.4492 42.7676 80.9551 42.7676ZM80.7227 49.0771C81.3561 49.0771 81.8574 48.8402 82.2266 48.3662C82.5957 47.8923 82.7803 47.252 82.7803 46.4453C82.7803 45.6387 82.5957 44.9984 82.2266 44.5244C81.8574 44.0505 81.3561 43.8135 80.7227 43.8135C80.112 43.8135 79.6198 44.055 79.2461 44.5381C78.8724 45.0212 78.6855 45.6569 78.6855 46.4453C78.6855 47.2383 78.8724 47.8763 79.2461 48.3594C79.6198 48.8379 80.112 49.0771 80.7227 49.0771ZM85.2617 50V40.1357H86.4512V44.0254H86.4785C86.679 43.6243 86.9707 43.3145 87.3535 43.0957C87.7409 42.877 88.2012 42.7676 88.7344 42.7676C89.5091 42.7676 90.1198 43.0068 90.5664 43.4854C91.013 43.9639 91.2363 44.6042 91.2363 45.4062V50H90.0469V45.625C90.0469 45.0508 89.9033 44.6064 89.6162 44.292C89.3337 43.9775 88.9167 43.8203 88.3652 43.8203C87.7773 43.8203 87.3102 44.0049 86.9639 44.374C86.6221 44.7432 86.4512 45.2376 86.4512 45.8574V50H85.2617ZM95.6934 50.123C94.6999 50.123 93.9023 49.7926 93.3008 49.1318C92.6992 48.4665 92.3984 47.571 92.3984 46.4453C92.3984 45.3197 92.6992 44.4264 93.3008 43.7656C93.9023 43.1003 94.6999 42.7676 95.6934 42.7676C96.6823 42.7676 97.4775 43.1003 98.0791 43.7656C98.6807 44.4264 98.9814 45.3197 98.9814 46.4453C98.9814 47.5664 98.6807 48.4596 98.0791 49.125C97.4775 49.7904 96.6823 50.123 95.6934 50.123ZM94.1689 48.3799C94.5472 48.8447 95.0553 49.0771 95.6934 49.0771C96.3314 49.0771 96.8372 48.847 97.2109 48.3867C97.5846 47.9219 97.7715 47.2747 97.7715 46.4453C97.7715 45.6159 97.5846 44.971 97.2109 44.5107C96.8372 44.0459 96.3314 43.8135 95.6934 43.8135C95.0553 43.8135 94.5472 44.0459 94.1689 44.5107C93.7952 44.9756 93.6084 45.6204 93.6084 46.4453C93.6084 47.2702 93.7952 47.915 94.1689 48.3799ZM100.185 50V42.8906H101.306V44.0254H101.333C101.538 43.6289 101.832 43.3213 102.215 43.1025C102.598 42.8792 103.056 42.7676 103.589 42.7676C104.364 42.7676 104.967 43.0023 105.4 43.4717C105.833 43.9365 106.05 44.5745 106.05 45.3857V50H104.86V45.5977C104.86 45.0189 104.724 44.5791 104.45 44.2783C104.177 43.973 103.769 43.8203 103.227 43.8203C102.666 43.8203 102.217 44.0026 101.88 44.3672C101.543 44.7318 101.374 45.2148 101.374 45.8164V50H100.185ZM110.418 43.7998C109.867 43.7998 109.409 43.9912 109.044 44.374C108.684 44.7523 108.486 45.2399 108.449 45.8369H112.312C112.298 45.2354 112.118 44.7454 111.771 44.3672C111.425 43.9889 110.974 43.7998 110.418 43.7998ZM112.284 47.9629H113.453C113.348 48.5918 113.02 49.109 112.469 49.5146C111.922 49.9202 111.263 50.123 110.493 50.123C109.477 50.123 108.677 49.7949 108.094 49.1387C107.51 48.4824 107.219 47.5938 107.219 46.4727C107.219 45.3607 107.51 44.4652 108.094 43.7861C108.682 43.1071 109.463 42.7676 110.438 42.7676C111.396 42.7676 112.152 43.0889 112.708 43.7314C113.264 44.374 113.542 45.2354 113.542 46.3154V46.7666H108.442V46.835C108.442 47.5186 108.629 48.0654 109.003 48.4756C109.377 48.8857 109.882 49.0908 110.521 49.0908C110.967 49.0908 111.348 48.9883 111.662 48.7832C111.977 48.5781 112.184 48.3047 112.284 47.9629ZM117.616 50V42.8906H118.737V44.0254H118.765C118.97 43.6289 119.264 43.3213 119.646 43.1025C120.029 42.8792 120.487 42.7676 121.021 42.7676C121.795 42.7676 122.399 43.0023 122.832 43.4717C123.265 43.9365 123.481 44.5745 123.481 45.3857V50H122.292V45.5977C122.292 45.0189 122.155 44.5791 121.882 44.2783C121.608 43.973 121.201 43.8203 120.658 43.8203C120.098 43.8203 119.649 44.0026 119.312 44.3672C118.974 44.7318 118.806 45.2148 118.806 45.8164V50H117.616ZM130.837 42.8906V50H129.709V48.8447H129.682C129.24 49.6969 128.488 50.123 127.426 50.123C126.656 50.123 126.052 49.8906 125.614 49.4258C125.181 48.9564 124.965 48.3161 124.965 47.5049V42.8906H126.154V47.293C126.154 48.4779 126.701 49.0703 127.795 49.0703C128.369 49.0703 128.82 48.8903 129.148 48.5303C129.481 48.1657 129.647 47.6781 129.647 47.0674V42.8906H130.837ZM132.382 50V42.8906H133.503V44.0254H133.53C133.703 43.638 133.965 43.3327 134.316 43.1094C134.667 42.8815 135.077 42.7676 135.547 42.7676C136.03 42.7676 136.445 42.8861 136.791 43.123C137.137 43.3555 137.388 43.6882 137.543 44.1211H137.57C137.766 43.6973 138.06 43.3669 138.452 43.1299C138.849 42.8883 139.298 42.7676 139.799 42.7676C140.501 42.7676 141.061 42.9795 141.48 43.4033C141.904 43.8226 142.116 44.3854 142.116 45.0918V50H140.927V45.3652C140.927 44.8776 140.797 44.4993 140.537 44.2305C140.282 43.957 139.92 43.8203 139.45 43.8203C138.981 43.8203 138.596 43.9775 138.295 44.292C137.994 44.6019 137.844 44.9984 137.844 45.4814V50H136.654V45.2354C136.654 44.807 136.522 44.4652 136.258 44.21C135.993 43.9502 135.64 43.8203 135.198 43.8203C134.729 43.8203 134.339 43.9844 134.029 44.3125C133.724 44.6406 133.571 45.0508 133.571 45.543V50H132.382ZM147.168 50.123C146.658 50.123 146.202 50.0068 145.801 49.7744C145.404 49.542 145.09 49.2161 144.857 48.7969H144.83V50H143.695V40.1357H144.885V44.0801H144.912C145.135 43.6699 145.445 43.3486 145.842 43.1162C146.243 42.8838 146.692 42.7676 147.188 42.7676C148.086 42.7676 148.811 43.1025 149.362 43.7725C149.914 44.4424 150.189 45.3333 150.189 46.4453C150.189 47.5618 149.914 48.4551 149.362 49.125C148.811 49.7904 148.079 50.123 147.168 50.123ZM146.936 43.8135C146.329 43.8135 145.835 44.0573 145.452 44.5449C145.069 45.028 144.878 45.6615 144.878 46.4453C144.878 47.2337 145.069 47.8695 145.452 48.3525C145.835 48.8356 146.329 49.0771 146.936 49.0771C147.564 49.0771 148.061 48.8424 148.426 48.373C148.79 47.8991 148.973 47.2565 148.973 46.4453C148.973 45.6387 148.79 44.9984 148.426 44.5244C148.061 44.0505 147.564 43.8135 146.936 43.8135ZM154.25 43.7998C153.699 43.7998 153.241 43.9912 152.876 44.374C152.516 44.7523 152.318 45.2399 152.281 45.8369H156.144C156.13 45.2354 155.95 44.7454 155.604 44.3672C155.257 43.9889 154.806 43.7998 154.25 43.7998ZM156.116 47.9629H157.285C157.18 48.5918 156.852 49.109 156.301 49.5146C155.754 49.9202 155.095 50.123 154.325 50.123C153.309 50.123 152.509 49.7949 151.926 49.1387C151.342 48.4824 151.051 47.5938 151.051 46.4727C151.051 45.3607 151.342 44.4652 151.926 43.7861C152.514 43.1071 153.295 42.7676 154.271 42.7676C155.228 42.7676 155.984 43.0889 156.54 43.7314C157.096 44.374 157.374 45.2354 157.374 46.3154V46.7666H152.274V46.835C152.274 47.5186 152.461 48.0654 152.835 48.4756C153.209 48.8857 153.715 49.0908 154.353 49.0908C154.799 49.0908 155.18 48.9883 155.494 48.7832C155.809 48.5781 156.016 48.3047 156.116 47.9629ZM158.577 50V42.8906H159.698V44.0527H159.726C159.844 43.6562 160.056 43.3441 160.361 43.1162C160.671 42.8838 161.034 42.7676 161.448 42.7676C161.544 42.7676 161.703 42.7835 161.927 42.8154V43.9707C161.799 43.9251 161.587 43.9023 161.291 43.9023C160.831 43.9023 160.462 44.055 160.184 44.3604C159.906 44.6657 159.767 45.069 159.767 45.5703V50H158.577ZM165.769 50V42.8906H166.89V44.0254H166.917C167.09 43.638 167.352 43.3327 167.703 43.1094C168.054 42.8815 168.464 42.7676 168.934 42.7676C169.417 42.7676 169.831 42.8861 170.178 43.123C170.524 43.3555 170.775 43.6882 170.93 44.1211H170.957C171.153 43.6973 171.447 43.3669 171.839 43.1299C172.235 42.8883 172.684 42.7676 173.186 42.7676C173.887 42.7676 174.448 42.9795 174.867 43.4033C175.291 43.8226 175.503 44.3854 175.503 45.0918V50H174.313V45.3652C174.313 44.8776 174.184 44.4993 173.924 44.2305C173.669 43.957 173.306 43.8203 172.837 43.8203C172.368 43.8203 171.982 43.9775 171.682 44.292C171.381 44.6019 171.23 44.9984 171.23 45.4814V50H170.041V45.2354C170.041 44.807 169.909 44.4652 169.645 44.21C169.38 43.9502 169.027 43.8203 168.585 43.8203C168.116 43.8203 167.726 43.9844 167.416 44.3125C167.111 44.6406 166.958 45.0508 166.958 45.543V50H165.769ZM179.365 49.1113C179.926 49.1113 180.395 48.9382 180.773 48.5918C181.156 48.2409 181.348 47.8102 181.348 47.2998V46.7188L179.447 46.835C178.969 46.8669 178.597 46.9831 178.333 47.1836C178.073 47.3841 177.943 47.653 177.943 47.9902C177.943 48.3275 178.073 48.5986 178.333 48.8037C178.593 49.0088 178.937 49.1113 179.365 49.1113ZM179.099 50.123C178.392 50.123 177.82 49.9271 177.383 49.5352C176.95 49.1432 176.733 48.6283 176.733 47.9902C176.733 47.3796 176.957 46.8919 177.403 46.5273C177.854 46.1628 178.49 45.9577 179.311 45.9121L181.348 45.7959V45.2012C181.348 44.7682 181.211 44.4287 180.938 44.1826C180.664 43.9365 180.281 43.8135 179.789 43.8135C179.338 43.8135 178.971 43.9137 178.688 44.1143C178.406 44.3102 178.226 44.5859 178.148 44.9414H177C177.041 44.3079 177.314 43.7884 177.82 43.3828C178.331 42.9727 178.996 42.7676 179.816 42.7676C180.65 42.7676 181.311 42.9772 181.799 43.3965C182.291 43.8158 182.537 44.3786 182.537 45.085V50H181.409V48.7764H181.382C181.168 49.182 180.853 49.5078 180.438 49.7539C180.024 50 179.577 50.123 179.099 50.123ZM184.636 52.6592C184.426 52.6592 184.255 52.6455 184.123 52.6182V51.6201C184.232 51.6429 184.387 51.6543 184.588 51.6543C184.921 51.6543 185.187 51.5654 185.388 51.3877C185.588 51.2145 185.757 50.9206 185.894 50.5059L186.058 50.0068L183.433 42.8906H184.704L186.673 48.8105H186.693L188.662 42.8906H189.913L187.117 50.499C186.812 51.3285 186.481 51.8958 186.126 52.2012C185.775 52.5065 185.278 52.6592 184.636 52.6592ZM197.262 50.123C196.751 50.123 196.296 50.0068 195.895 49.7744C195.498 49.542 195.184 49.2161 194.951 48.7969H194.924V50H193.789V40.1357H194.979V44.0801H195.006C195.229 43.6699 195.539 43.3486 195.936 43.1162C196.337 42.8838 196.785 42.7676 197.282 42.7676C198.18 42.7676 198.905 43.1025 199.456 43.7725C200.007 44.4424 200.283 45.3333 200.283 46.4453C200.283 47.5618 200.007 48.4551 199.456 49.125C198.905 49.7904 198.173 50.123 197.262 50.123ZM197.029 43.8135C196.423 43.8135 195.929 44.0573 195.546 44.5449C195.163 45.028 194.972 45.6615 194.972 46.4453C194.972 47.2337 195.163 47.8695 195.546 48.3525C195.929 48.8356 196.423 49.0771 197.029 49.0771C197.658 49.0771 198.155 48.8424 198.52 48.373C198.884 47.8991 199.066 47.2565 199.066 46.4453C199.066 45.6387 198.884 44.9984 198.52 44.5244C198.155 44.0505 197.658 43.8135 197.029 43.8135ZM204.344 43.7998C203.792 43.7998 203.334 43.9912 202.97 44.374C202.61 44.7523 202.411 45.2399 202.375 45.8369H206.237C206.224 45.2354 206.044 44.7454 205.697 44.3672C205.351 43.9889 204.9 43.7998 204.344 43.7998ZM206.21 47.9629H207.379C207.274 48.5918 206.946 49.109 206.395 49.5146C205.848 49.9202 205.189 50.123 204.419 50.123C203.403 50.123 202.603 49.7949 202.02 49.1387C201.436 48.4824 201.145 47.5938 201.145 46.4727C201.145 45.3607 201.436 44.4652 202.02 43.7861C202.607 43.1071 203.389 42.7676 204.364 42.7676C205.321 42.7676 206.078 43.0889 206.634 43.7314C207.19 44.374 207.468 45.2354 207.468 46.3154V46.7666H202.368V46.835C202.368 47.5186 202.555 48.0654 202.929 48.4756C203.302 48.8857 203.808 49.0908 204.446 49.0908C204.893 49.0908 205.273 48.9883 205.588 48.7832C205.902 48.5781 206.11 48.3047 206.21 47.9629ZM214.994 42.7676C215.906 42.7676 216.639 43.1025 217.195 43.7725C217.756 44.4424 218.036 45.3333 218.036 46.4453C218.036 47.5527 217.758 48.4437 217.202 49.1182C216.646 49.7881 215.919 50.123 215.021 50.123C214.52 50.123 214.071 50.0091 213.675 49.7812C213.278 49.5534 212.973 49.2412 212.759 48.8447H212.731V52.3721H211.542V42.8906H212.67V44.0938H212.697C212.921 43.6836 213.233 43.36 213.634 43.123C214.035 42.8861 214.488 42.7676 214.994 42.7676ZM214.762 49.0771C215.395 49.0771 215.896 48.8402 216.266 48.3662C216.635 47.8923 216.819 47.252 216.819 46.4453C216.819 45.6387 216.635 44.9984 216.266 44.5244C215.896 44.0505 215.395 43.8135 214.762 43.8135C214.151 43.8135 213.659 44.055 213.285 44.5381C212.911 45.0212 212.725 45.6569 212.725 46.4453C212.725 47.2383 212.911 47.8763 213.285 48.3594C213.659 48.8379 214.151 49.0771 214.762 49.0771ZM219.239 50V42.8906H220.36V44.0527H220.388C220.506 43.6562 220.718 43.3441 221.023 43.1162C221.333 42.8838 221.696 42.7676 222.11 42.7676C222.206 42.7676 222.366 42.7835 222.589 42.8154V43.9707C222.461 43.9251 222.249 43.9023 221.953 43.9023C221.493 43.9023 221.124 44.055 220.846 44.3604C220.568 44.6657 220.429 45.069 220.429 45.5703V50H219.239ZM223.621 50V42.8906H224.811V50H223.621ZM224.216 41.6943C224.015 41.6943 223.842 41.6214 223.696 41.4756C223.55 41.3298 223.478 41.1566 223.478 40.9561C223.478 40.751 223.55 40.5778 223.696 40.4365C223.842 40.2907 224.015 40.2178 224.216 40.2178C224.421 40.2178 224.596 40.2907 224.742 40.4365C224.888 40.5778 224.961 40.751 224.961 40.9561C224.961 41.1566 224.888 41.3298 224.742 41.4756C224.596 41.6214 224.421 41.6943 224.216 41.6943ZM226.417 50V42.8906H227.538V44.0254H227.565C227.771 43.6289 228.064 43.3213 228.447 43.1025C228.83 42.8792 229.288 42.7676 229.821 42.7676C230.596 42.7676 231.2 43.0023 231.633 43.4717C232.066 43.9365 232.282 44.5745 232.282 45.3857V50H231.093V45.5977C231.093 45.0189 230.956 44.5791 230.683 44.2783C230.409 43.973 230.001 43.8203 229.459 43.8203C228.898 43.8203 228.45 44.0026 228.112 44.3672C227.775 44.7318 227.606 45.2148 227.606 45.8164V50H226.417ZM234.183 41.1748H235.372V42.8906H236.753V43.8682H235.372V48.0928C235.372 48.4163 235.443 48.6556 235.584 48.8105C235.725 48.9609 235.949 49.0361 236.254 49.0361C236.445 49.0361 236.609 49.0247 236.746 49.002V50C236.591 50.0365 236.34 50.0547 235.994 50.0547C235.342 50.0547 234.878 49.9089 234.6 49.6172C234.322 49.3255 234.183 48.8379 234.183 48.1543V43.8682H233.123V42.8906H234.183V41.1748ZM240.67 43.7998C240.118 43.7998 239.66 43.9912 239.296 44.374C238.936 44.7523 238.738 45.2399 238.701 45.8369H242.563C242.55 45.2354 242.37 44.7454 242.023 44.3672C241.677 43.9889 241.226 43.7998 240.67 43.7998ZM242.536 47.9629H243.705C243.6 48.5918 243.272 49.109 242.721 49.5146C242.174 49.9202 241.515 50.123 240.745 50.123C239.729 50.123 238.929 49.7949 238.346 49.1387C237.762 48.4824 237.471 47.5938 237.471 46.4727C237.471 45.3607 237.762 44.4652 238.346 43.7861C238.934 43.1071 239.715 42.7676 240.69 42.7676C241.647 42.7676 242.404 43.0889 242.96 43.7314C243.516 44.374 243.794 45.2354 243.794 46.3154V46.7666H238.694V46.835C238.694 47.5186 238.881 48.0654 239.255 48.4756C239.629 48.8857 240.134 49.0908 240.772 49.0908C241.219 49.0908 241.6 48.9883 241.914 48.7832C242.229 48.5781 242.436 48.3047 242.536 47.9629ZM247.69 50.123C246.779 50.123 246.043 49.7881 245.482 49.1182C244.926 48.4482 244.648 47.5573 244.648 46.4453C244.648 45.3379 244.926 44.4492 245.482 43.7793C246.038 43.1048 246.765 42.7676 247.663 42.7676C248.164 42.7676 248.613 42.8815 249.01 43.1094C249.406 43.3372 249.712 43.6494 249.926 44.0459H249.953V40.1357H251.143V50H250.008V48.7969H249.987C249.755 49.2116 249.44 49.5374 249.044 49.7744C248.647 50.0068 248.196 50.123 247.69 50.123ZM247.916 43.8135C247.287 43.8135 246.788 44.0527 246.419 44.5312C246.05 45.0052 245.865 45.6432 245.865 46.4453C245.865 47.252 246.05 47.8923 246.419 48.3662C246.788 48.8402 247.287 49.0771 247.916 49.0771C248.531 49.0771 249.026 48.8379 249.399 48.3594C249.773 47.8763 249.96 47.2383 249.96 46.4453C249.96 45.6523 249.771 45.0166 249.393 44.5381C249.019 44.055 248.527 43.8135 247.916 43.8135ZM258.566 50.123C257.573 50.123 256.775 49.7926 256.174 49.1318C255.572 48.4665 255.271 47.571 255.271 46.4453C255.271 45.3197 255.572 44.4264 256.174 43.7656C256.775 43.1003 257.573 42.7676 258.566 42.7676C259.555 42.7676 260.351 43.1003 260.952 43.7656C261.554 44.4264 261.854 45.3197 261.854 46.4453C261.854 47.5664 261.554 48.4596 260.952 49.125C260.351 49.7904 259.555 50.123 258.566 50.123ZM257.042 48.3799C257.42 48.8447 257.928 49.0771 258.566 49.0771C259.204 49.0771 259.71 48.847 260.084 48.3867C260.458 47.9219 260.645 47.2747 260.645 46.4453C260.645 45.6159 260.458 44.971 260.084 44.5107C259.71 44.0459 259.204 43.8135 258.566 43.8135C257.928 43.8135 257.42 44.0459 257.042 44.5107C256.668 44.9756 256.481 45.6204 256.481 46.4453C256.481 47.2702 256.668 47.915 257.042 48.3799ZM263.058 50V42.8906H264.179V44.0254H264.206C264.411 43.6289 264.705 43.3213 265.088 43.1025C265.471 42.8792 265.929 42.7676 266.462 42.7676C267.237 42.7676 267.84 43.0023 268.273 43.4717C268.706 43.9365 268.923 44.5745 268.923 45.3857V50H267.733V45.5977C267.733 45.0189 267.597 44.5791 267.323 44.2783C267.05 43.973 266.642 43.8203 266.1 43.8203C265.539 43.8203 265.09 44.0026 264.753 44.3672C264.416 44.7318 264.247 45.2148 264.247 45.8164V50H263.058ZM273.373 50V40.1357H274.562V50H273.373ZM278.514 49.1113C279.074 49.1113 279.544 48.9382 279.922 48.5918C280.305 48.2409 280.496 47.8102 280.496 47.2998V46.7188L278.596 46.835C278.117 46.8669 277.746 46.9831 277.481 47.1836C277.222 47.3841 277.092 47.653 277.092 47.9902C277.092 48.3275 277.222 48.5986 277.481 48.8037C277.741 49.0088 278.085 49.1113 278.514 49.1113ZM278.247 50.123C277.541 50.123 276.969 49.9271 276.531 49.5352C276.098 49.1432 275.882 48.6283 275.882 47.9902C275.882 47.3796 276.105 46.8919 276.552 46.5273C277.003 46.1628 277.639 45.9577 278.459 45.9121L280.496 45.7959V45.2012C280.496 44.7682 280.359 44.4287 280.086 44.1826C279.812 43.9365 279.43 43.8135 278.938 43.8135C278.486 43.8135 278.119 43.9137 277.837 44.1143C277.554 44.3102 277.374 44.5859 277.297 44.9414H276.148C276.189 44.3079 276.463 43.7884 276.969 43.3828C277.479 42.9727 278.145 42.7676 278.965 42.7676C279.799 42.7676 280.46 42.9772 280.947 43.3965C281.439 43.8158 281.686 44.3786 281.686 45.085V50H280.558V48.7764H280.53C280.316 49.182 280.002 49.5078 279.587 49.7539C279.172 50 278.726 50.123 278.247 50.123ZM286.73 50.123C286.22 50.123 285.764 50.0068 285.363 49.7744C284.967 49.542 284.652 49.2161 284.42 48.7969H284.393V50H283.258V40.1357H284.447V44.0801H284.475C284.698 43.6699 285.008 43.3486 285.404 43.1162C285.805 42.8838 286.254 42.7676 286.751 42.7676C287.649 42.7676 288.373 43.1025 288.925 43.7725C289.476 44.4424 289.752 45.3333 289.752 46.4453C289.752 47.5618 289.476 48.4551 288.925 49.125C288.373 49.7904 287.642 50.123 286.73 50.123ZM286.498 43.8135C285.892 43.8135 285.397 44.0573 285.015 44.5449C284.632 45.028 284.44 45.6615 284.44 46.4453C284.44 47.2337 284.632 47.8695 285.015 48.3525C285.397 48.8356 285.892 49.0771 286.498 49.0771C287.127 49.0771 287.624 48.8424 287.988 48.373C288.353 47.8991 288.535 47.2565 288.535 46.4453C288.535 45.6387 288.353 44.9984 287.988 44.5244C287.624 44.0505 287.127 43.8135 286.498 43.8135ZM293.812 43.7998C293.261 43.7998 292.803 43.9912 292.438 44.374C292.078 44.7523 291.88 45.2399 291.844 45.8369H295.706C295.692 45.2354 295.512 44.7454 295.166 44.3672C294.82 43.9889 294.368 43.7998 293.812 43.7998ZM295.679 47.9629H296.848C296.743 48.5918 296.415 49.109 295.863 49.5146C295.316 49.9202 294.658 50.123 293.888 50.123C292.871 50.123 292.072 49.7949 291.488 49.1387C290.905 48.4824 290.613 47.5938 290.613 46.4727C290.613 45.3607 290.905 44.4652 291.488 43.7861C292.076 43.1071 292.858 42.7676 293.833 42.7676C294.79 42.7676 295.547 43.0889 296.103 43.7314C296.659 44.374 296.937 45.2354 296.937 46.3154V46.7666H291.837V46.835C291.837 47.5186 292.024 48.0654 292.397 48.4756C292.771 48.8857 293.277 49.0908 293.915 49.0908C294.362 49.0908 294.742 48.9883 295.057 48.7832C295.371 48.5781 295.578 48.3047 295.679 47.9629ZM298.201 50V40.1357H299.391V50H298.201ZM304.251 41.1748H305.44V42.8906H306.821V43.8682H305.44V48.0928C305.44 48.4163 305.511 48.6556 305.652 48.8105C305.794 48.9609 306.017 49.0361 306.322 49.0361C306.514 49.0361 306.678 49.0247 306.814 49.002V50C306.66 50.0365 306.409 50.0547 306.062 50.0547C305.411 50.0547 304.946 49.9089 304.668 49.6172C304.39 49.3255 304.251 48.8379 304.251 48.1543V43.8682H303.191V42.8906H304.251V41.1748ZM310.834 50.123C309.84 50.123 309.043 49.7926 308.441 49.1318C307.84 48.4665 307.539 47.571 307.539 46.4453C307.539 45.3197 307.84 44.4264 308.441 43.7656C309.043 43.1003 309.84 42.7676 310.834 42.7676C311.823 42.7676 312.618 43.1003 313.22 43.7656C313.821 44.4264 314.122 45.3197 314.122 46.4453C314.122 47.5664 313.821 48.4596 313.22 49.125C312.618 49.7904 311.823 50.123 310.834 50.123ZM309.31 48.3799C309.688 48.8447 310.196 49.0771 310.834 49.0771C311.472 49.0771 311.978 48.847 312.352 48.3867C312.725 47.9219 312.912 47.2747 312.912 46.4453C312.912 45.6159 312.725 44.971 312.352 44.5107C311.978 44.0459 311.472 43.8135 310.834 43.8135C310.196 43.8135 309.688 44.0459 309.31 44.5107C308.936 44.9756 308.749 45.6204 308.749 46.4453C308.749 47.2702 308.936 47.915 309.31 48.3799ZM320.541 49.1113C321.102 49.1113 321.571 48.9382 321.949 48.5918C322.332 48.2409 322.523 47.8102 322.523 47.2998V46.7188L320.623 46.835C320.145 46.8669 319.773 46.9831 319.509 47.1836C319.249 47.3841 319.119 47.653 319.119 47.9902C319.119 48.3275 319.249 48.5986 319.509 48.8037C319.769 49.0088 320.113 49.1113 320.541 49.1113ZM320.274 50.123C319.568 50.123 318.996 49.9271 318.559 49.5352C318.126 49.1432 317.909 48.6283 317.909 47.9902C317.909 47.3796 318.132 46.8919 318.579 46.5273C319.03 46.1628 319.666 45.9577 320.486 45.9121L322.523 45.7959V45.2012C322.523 44.7682 322.387 44.4287 322.113 44.1826C321.84 43.9365 321.457 43.8135 320.965 43.8135C320.514 43.8135 320.147 43.9137 319.864 44.1143C319.582 44.3102 319.402 44.5859 319.324 44.9414H318.176C318.217 44.3079 318.49 43.7884 318.996 43.3828C319.507 42.9727 320.172 42.7676 320.992 42.7676C321.826 42.7676 322.487 42.9772 322.975 43.3965C323.467 43.8158 323.713 44.3786 323.713 45.085V50H322.585V48.7764H322.558C322.343 49.182 322.029 49.5078 321.614 49.7539C321.2 50 320.753 50.123 320.274 50.123ZM325.101 44.8525C325.101 44.2419 325.347 43.7428 325.839 43.3555C326.336 42.9635 326.974 42.7676 327.753 42.7676C328.487 42.7676 329.097 42.9635 329.585 43.3555C330.073 43.7474 330.33 44.2441 330.357 44.8457H329.223C329.182 44.4993 329.027 44.2282 328.758 44.0322C328.493 43.8363 328.145 43.7383 327.712 43.7383C327.279 43.7383 326.93 43.8363 326.666 44.0322C326.402 44.2236 326.27 44.4766 326.27 44.791C326.27 45.2741 326.664 45.6159 327.452 45.8164L328.553 46.083C329.268 46.2653 329.772 46.5023 330.063 46.7939C330.36 47.0811 330.508 47.4867 330.508 48.0107C330.508 48.6305 330.243 49.1387 329.715 49.5352C329.186 49.9271 328.507 50.123 327.678 50.123C326.903 50.123 326.263 49.9316 325.757 49.5488C325.256 49.1615 324.973 48.651 324.909 48.0176H326.099C326.231 48.7741 326.782 49.1523 327.753 49.1523C328.231 49.1523 328.61 49.0589 328.888 48.8721C329.17 48.6807 329.312 48.4232 329.312 48.0996C329.312 47.8444 329.227 47.6416 329.059 47.4912C328.895 47.3408 328.614 47.2132 328.218 47.1084L326.967 46.7871C325.723 46.4681 325.101 45.8232 325.101 44.8525ZM331.622 44.8525C331.622 44.2419 331.868 43.7428 332.36 43.3555C332.857 42.9635 333.495 42.7676 334.274 42.7676C335.008 42.7676 335.619 42.9635 336.106 43.3555C336.594 43.7474 336.852 44.2441 336.879 44.8457H335.744C335.703 44.4993 335.548 44.2282 335.279 44.0322C335.015 43.8363 334.666 43.7383 334.233 43.7383C333.8 43.7383 333.452 43.8363 333.188 44.0322C332.923 44.2236 332.791 44.4766 332.791 44.791C332.791 45.2741 333.185 45.6159 333.974 45.8164L335.074 46.083C335.79 46.2653 336.293 46.5023 336.585 46.7939C336.881 47.0811 337.029 47.4867 337.029 48.0107C337.029 48.6305 336.765 49.1387 336.236 49.5352C335.708 49.9271 335.029 50.123 334.199 50.123C333.424 50.123 332.784 49.9316 332.278 49.5488C331.777 49.1615 331.494 48.651 331.431 48.0176H332.62C332.752 48.7741 333.304 49.1523 334.274 49.1523C334.753 49.1523 335.131 49.0589 335.409 48.8721C335.692 48.6807 335.833 48.4232 335.833 48.0996C335.833 47.8444 335.749 47.6416 335.58 47.4912C335.416 47.3408 335.136 47.2132 334.739 47.1084L333.488 46.7871C332.244 46.4681 331.622 45.8232 331.622 44.8525ZM338.328 50V42.8906H339.518V50H338.328ZM338.923 41.6943C338.722 41.6943 338.549 41.6214 338.403 41.4756C338.257 41.3298 338.185 41.1566 338.185 40.9561C338.185 40.751 338.257 40.5778 338.403 40.4365C338.549 40.2907 338.722 40.2178 338.923 40.2178C339.128 40.2178 339.303 40.2907 339.449 40.4365C339.595 40.5778 339.668 40.751 339.668 40.9561C339.668 41.1566 339.595 41.3298 339.449 41.4756C339.303 41.6214 339.128 41.6943 338.923 41.6943ZM341.001 44.8525C341.001 44.2419 341.247 43.7428 341.739 43.3555C342.236 42.9635 342.874 42.7676 343.653 42.7676C344.387 42.7676 344.998 42.9635 345.485 43.3555C345.973 43.7474 346.23 44.2441 346.258 44.8457H345.123C345.082 44.4993 344.927 44.2282 344.658 44.0322C344.394 43.8363 344.045 43.7383 343.612 43.7383C343.179 43.7383 342.831 43.8363 342.566 44.0322C342.302 44.2236 342.17 44.4766 342.17 44.791C342.17 45.2741 342.564 45.6159 343.353 45.8164L344.453 46.083C345.169 46.2653 345.672 46.5023 345.964 46.7939C346.26 47.0811 346.408 47.4867 346.408 48.0107C346.408 48.6305 346.144 49.1387 345.615 49.5352C345.087 49.9271 344.408 50.123 343.578 50.123C342.803 50.123 342.163 49.9316 341.657 49.5488C341.156 49.1615 340.873 48.651 340.81 48.0176H341.999C342.131 48.7741 342.683 49.1523 343.653 49.1523C344.132 49.1523 344.51 49.0589 344.788 48.8721C345.071 48.6807 345.212 48.4232 345.212 48.0996C345.212 47.8444 345.128 47.6416 344.959 47.4912C344.795 47.3408 344.515 47.2132 344.118 47.1084L342.867 46.7871C341.623 46.4681 341.001 45.8232 341.001 44.8525ZM348.028 41.1748H349.218V42.8906H350.599V43.8682H349.218V48.0928C349.218 48.4163 349.288 48.6556 349.43 48.8105C349.571 48.9609 349.794 49.0361 350.1 49.0361C350.291 49.0361 350.455 49.0247 350.592 49.002V50C350.437 50.0365 350.186 50.0547 349.84 50.0547C349.188 50.0547 348.723 49.9089 348.445 49.6172C348.167 49.3255 348.028 48.8379 348.028 48.1543V43.8682H346.969V42.8906H348.028V41.1748ZM54.4658 72.123C53.5544 72.123 52.8184 71.7881 52.2578 71.1182C51.7018 70.4482 51.4238 69.5573 51.4238 68.4453C51.4238 67.3379 51.7018 66.4492 52.2578 65.7793C52.8138 65.1048 53.5407 64.7676 54.4385 64.7676C54.9398 64.7676 55.3887 64.8815 55.7852 65.1094C56.1816 65.3372 56.487 65.6494 56.7012 66.0459H56.7285V62.1357H57.918V72H56.7832V70.7969H56.7627C56.5303 71.2116 56.2158 71.5374 55.8193 71.7744C55.4229 72.0068 54.9717 72.123 54.4658 72.123ZM54.6914 65.8135C54.0625 65.8135 53.5635 66.0527 53.1943 66.5312C52.8252 67.0052 52.6406 67.6432 52.6406 68.4453C52.6406 69.252 52.8252 69.8923 53.1943 70.3662C53.5635 70.8402 54.0625 71.0771 54.6914 71.0771C55.3066 71.0771 55.8011 70.8379 56.1748 70.3594C56.5485 69.8763 56.7354 69.2383 56.7354 68.4453C56.7354 67.6523 56.5462 67.0166 56.168 66.5381C55.7943 66.055 55.3021 65.8135 54.6914 65.8135ZM62.375 65.7998C61.8236 65.7998 61.3656 65.9912 61.001 66.374C60.641 66.7523 60.4427 67.2399 60.4062 67.8369H64.2686C64.2549 67.2354 64.0749 66.7454 63.7285 66.3672C63.3822 65.9889 62.931 65.7998 62.375 65.7998ZM64.2412 69.9629H65.4102C65.3053 70.5918 64.9772 71.109 64.4258 71.5146C63.8789 71.9202 63.2204 72.123 62.4502 72.123C61.4339 72.123 60.6341 71.7949 60.0508 71.1387C59.4674 70.4824 59.1758 69.5938 59.1758 68.4727C59.1758 67.3607 59.4674 66.4652 60.0508 65.7861C60.6387 65.1071 61.4202 64.7676 62.3955 64.7676C63.3525 64.7676 64.109 65.0889 64.665 65.7314C65.221 66.374 65.499 67.2354 65.499 68.3154V68.7666H60.3994V68.835C60.3994 69.5186 60.5863 70.0654 60.96 70.4756C61.3337 70.8857 61.8395 71.0908 62.4775 71.0908C62.9242 71.0908 63.3047 70.9883 63.6191 70.7832C63.9336 70.5781 64.141 70.3047 64.2412 69.9629ZM66.7637 72V62.1357H67.9531V72H66.7637ZM69.6211 72V64.8906H70.8105V72H69.6211ZM70.2158 63.6943C70.0153 63.6943 69.8421 63.6214 69.6963 63.4756C69.5505 63.3298 69.4775 63.1566 69.4775 62.9561C69.4775 62.751 69.5505 62.5778 69.6963 62.4365C69.8421 62.2907 70.0153 62.2178 70.2158 62.2178C70.4209 62.2178 70.5964 62.2907 70.7422 62.4365C70.888 62.5778 70.9609 62.751 70.9609 62.9561C70.9609 63.1566 70.888 63.3298 70.7422 63.4756C70.5964 63.6214 70.4209 63.6943 70.2158 63.6943ZM78.248 64.8906L75.6367 72H74.4199L71.8018 64.8906H73.0527L75.0146 70.7354H75.042L77.0107 64.8906H78.248ZM81.8301 65.7998C81.2786 65.7998 80.8206 65.9912 80.4561 66.374C80.096 66.7523 79.8978 67.2399 79.8613 67.8369H83.7236C83.71 67.2354 83.5299 66.7454 83.1836 66.3672C82.8372 65.9889 82.3861 65.7998 81.8301 65.7998ZM83.6963 69.9629H84.8652C84.7604 70.5918 84.4323 71.109 83.8809 71.5146C83.334 71.9202 82.6755 72.123 81.9053 72.123C80.889 72.123 80.0892 71.7949 79.5059 71.1387C78.9225 70.4824 78.6309 69.5938 78.6309 68.4727C78.6309 67.3607 78.9225 66.4652 79.5059 65.7861C80.0938 65.1071 80.8753 64.7676 81.8506 64.7676C82.8076 64.7676 83.5641 65.0889 84.1201 65.7314C84.6761 66.374 84.9541 67.2354 84.9541 68.3154V68.7666H79.8545V68.835C79.8545 69.5186 80.0413 70.0654 80.415 70.4756C80.7887 70.8857 81.2946 71.0908 81.9326 71.0908C82.3792 71.0908 82.7598 70.9883 83.0742 70.7832C83.3887 70.5781 83.596 70.3047 83.6963 69.9629ZM86.1572 72V64.8906H87.2783V66.0527H87.3057C87.4242 65.6562 87.6361 65.3441 87.9414 65.1162C88.2513 64.8838 88.6136 64.7676 89.0283 64.7676C89.124 64.7676 89.2835 64.7835 89.5068 64.8154V65.9707C89.3792 65.9251 89.1673 65.9023 88.8711 65.9023C88.4108 65.9023 88.0417 66.055 87.7637 66.3604C87.4857 66.6657 87.3467 67.069 87.3467 67.5703V72H86.1572ZM91.0654 74.6592C90.8558 74.6592 90.6849 74.6455 90.5527 74.6182V73.6201C90.6621 73.6429 90.8171 73.6543 91.0176 73.6543C91.3503 73.6543 91.6169 73.5654 91.8174 73.3877C92.0179 73.2145 92.1865 72.9206 92.3232 72.5059L92.4873 72.0068L89.8623 64.8906H91.1338L93.1025 70.8105H93.123L95.0918 64.8906H96.3428L93.5469 72.499C93.2415 73.3285 92.9111 73.8958 92.5557 74.2012C92.2048 74.5065 91.708 74.6592 91.0654 74.6592Z" fill="#42484D"/>
<defs>
<filter id="filter0_d_1381_138595" x="0" y="0" width="431" height="124" filterUnits="userSpaceOnUse" color-interpolation-filters="sRGB">
<feFlood flood-opacity="0" result="BackgroundImageFix"/>
<feColorMatrix in="SourceAlpha" type="matrix" values="0 0 0 0 0 0 0 0 0 0 0 0 0 0 0 0 0 0 127 0" result="hardAlpha"/>
<feOffset dy="6"/>
<feGaussianBlur stdDeviation="10"/>
<feComposite in2="hardAlpha" operator="out"/>
<feColorMatrix type="matrix" values="0 0 0 0 0.234375 0 0 0 0 0.255938 0 0 0 0 0.45 0 0 0 0.25 0"/>
<feBlend mode="normal" in2="BackgroundImageFix" result="effect1_dropShadow_1381_138595"/>
<feBlend mode="normal" in="SourceGraphic" in2="effect1_dropShadow_1381_138595" result="shape"/>
</filter>
</defs>
</svg>
