<svg width="18" height="18" viewBox="0 0 18 18" fill="none" xmlns="http://www.w3.org/2000/svg">
<path d="M17.6874 16.1791L14.2273 12.7197C15.2759 11.3472 15.8511 9.68244 15.8513 7.92575C15.8513 5.80876 15.0266 3.81834 13.5291 2.32142C12.0319 0.824503 10.0413 0 7.92364 0C5.8062 0 3.81536 0.824503 2.31813 2.32142C-0.772711 5.41188 -0.772711 10.4401 2.31813 13.5301C3.81536 15.0273 5.8062 15.8518 7.92364 15.8518C9.6807 15.8515 11.3458 15.2765 12.7186 14.2281L16.1787 17.6875C16.3869 17.8958 16.6601 18 16.9331 18C17.2061 18 17.4793 17.8958 17.6874 17.6875C18.1042 17.2711 18.1042 16.5955 17.6874 16.1791ZM3.82683 12.0217C1.56795 9.7633 1.56821 6.08846 3.82683 3.8298C4.9211 2.73602 6.37613 2.1334 7.92364 2.1334C9.4714 2.1334 10.9262 2.73602 12.0204 3.8298C13.1147 4.92384 13.7175 6.37857 13.7175 7.92575C13.7175 9.47319 13.1147 10.9277 12.0204 12.0217C10.9262 13.1157 9.4714 13.7184 7.92364 13.7184C6.37613 13.7184 4.9211 13.1157 3.82683 12.0217Z" fill="#0072BC"/>
</svg>
